<svg width="110" height="50" viewBox="0 0 110 50" fill="none" xmlns="http://www.w3.org/2000/svg">
<g clip-path="url(#clip0_109_164)">
<path fill-rule="evenodd" clip-rule="evenodd" d="M27.2258 14.9721C27.1904 15.0201 27.131 15.0501 27.0656 15.056C26.8457 15.0857 26.6256 15.0914 26.4115 15.103C23.969 15.6283 21.6179 16.5805 19.1692 17.0456C15.2405 17.791 10.8307 17.4353 7.02939 16.2148C5.75437 15.8099 4.4736 15.4471 3.22783 14.9401C3.02519 14.8616 2.66184 14.7649 2.35194 14.6501C2.09567 14.5535 1.87494 14.4269 1.74938 14.2944C1.67163 14.2102 1.68316 14.132 1.68287 14.0719C1.69439 13.9937 1.72982 13.9397 1.80689 13.8857C1.83655 13.8677 1.88406 13.8497 1.94949 13.8498C1.99114 13.8499 2.05664 13.862 2.09233 13.8621C2.33031 13.8685 2.56833 13.8809 2.80635 13.8933C3.38949 13.9243 3.97838 13.9132 4.5552 13.866C6.23799 13.7123 7.98024 13.5527 9.62615 13.1525C13.1141 12.3103 16.8561 12.3463 20.364 13.1635C21.9779 13.5388 23.4328 14.2205 24.9986 14.4875L25.0105 14.4876C26.8356 14.2319 28.6849 14.0605 30.5407 14.0153C32.2836 13.982 34.027 14.0569 35.7593 14.3122C36.3903 14.3973 37.0096 14.5186 37.6289 14.6518C36.7401 14.1394 35.8808 13.5969 35.0571 13.0364C33.9887 12.3012 32.8252 11.5899 31.8927 10.6625C30.3744 9.15096 29.2773 7.40562 28.0732 5.6601C27.5639 4.91976 27.1792 4.08943 26.6996 3.32509C26.172 2.48852 25.5614 1.6879 25.0338 0.839307C24.71 0.321723 24.3626 -0.183873 24.0269 -0.695463C23.9191 -0.851958 23.8292 -0.996399 23.7095 -1.14089C23.6616 -1.20109 23.5482 -1.27342 23.5003 -1.33362C23.4525 -1.39382 23.4225 -1.44798 23.4163 -1.49007C23.398 -1.58029 23.4156 -1.6464 23.4629 -1.70044C23.4984 -1.74848 23.5575 -1.80851 23.6705 -1.81434C23.8489 -1.8321 24.0694 -1.75359 24.302 -1.63297C24.5585 -1.48827 24.8391 -1.27739 25.0062 -1.1689C26.0442 -0.572024 27.1236 -0.0352071 28.138 0.609731C30.8591 2.35765 33.3912 4.37583 35.0707 7.22839C36.0784 8.93752 36.676 10.7242 37.5521 12.2888C38.3382 13.697 39.3554 14.9131 41.1199 15.6734C43.617 16.6033 45.8598 17.8575 48.1452 19.286C52.2385 21.8538 56.4537 25.011 62.5709 27.8405C64.7174 28.836 66.9044 29.6271 69.1025 30.2318C69.0369 30.1896 68.9712 30.1534 68.8997 30.1172C66.9308 28.9297 64.3276 26.9715 63.0096 25.0514C61.4638 22.7763 60.2868 19.2691 59.0075 16.7539C58.491 15.731 57.8383 14.8461 57.126 13.9551C56.9704 13.7625 56.7075 13.5096 56.4861 13.2507C56.3126 13.046 56.1807 12.8353 56.1203 12.6428C56.078 12.5165 56.1193 12.4384 56.1488 12.3904C56.196 12.3123 56.2731 12.2643 56.3981 12.2765C56.4338 12.2766 56.4934 12.2947 56.5531 12.3369C56.6187 12.3851 56.7323 12.4935 56.7979 12.5297C56.9889 12.6562 57.168 12.7828 57.3648 12.8973C57.9257 13.253 58.5398 13.5365 59.1184 13.8561C59.3451 13.9827 59.5778 14.1153 59.7985 14.242C59.8459 14.212 59.9114 14.2121 59.9532 14.2602C60.0309 14.3385 60.1086 14.4048 60.1804 14.4831C61.0277 15.0255 61.8217 15.604 62.5982 16.2485C62.6457 16.2185 62.7111 16.2187 62.747 16.2668C63.0996 16.5981 63.4463 16.9353 63.7633 17.2905C63.8888 17.405 64.0202 17.5314 64.1458 17.6579C66.5962 20.0006 67.9421 22.7805 69.4141 25.7831C69.9248 26.824 70.3764 27.9431 70.9879 28.9241C71.5814 29.8689 72.317 30.6758 73.4139 31.1405C73.5093 31.1827 73.6165 31.219 73.7119 31.2492C79.0402 32.0873 84.4828 31.9516 89.9516 31.1005C85.5062 30.7628 80.6858 27.9293 77.49 25.2066C77.4242 25.1464 77.3585 25.0922 77.2868 25.0319C76.0085 23.9416 74.9436 22.7074 73.9733 21.329C73.9074 21.2387 73.7699 21.1062 73.6681 20.9618C73.5723 20.8354 73.4884 20.709 73.4581 20.5947C73.4278 20.4864 73.4274 20.3902 73.4686 20.3061C73.5039 20.222 73.5748 20.1319 73.6936 20.078C75.2489 19.395 77.5589 19.7775 79.919 20.6831C83.4115 22.0173 87.0285 24.4822 88.5119 26.15C89.1997 26.9206 89.7107 28.0217 90.334 28.9667C90.8433 29.7371 91.4236 30.4054 92.2814 30.6532C97.0648 29.5124 104.463 26.59 107.525 23.7029C107.679 23.5588 107.917 23.5712 108.06 23.7218C108.174 23.8482 108.192 24.0226 108.122 24.1668C108.14 24.1849 108.14 24.2149 108.152 24.233C108.181 24.203 108.211 24.185 108.235 24.155C108.294 24.1069 108.365 24.1191 108.413 24.1673C108.461 24.2275 108.45 24.2996 108.402 24.3536C108.041 24.6777 107.656 24.9597 107.258 25.2357C107.217 25.2656 107.163 25.2656 107.128 25.2354C106.861 25.4394 106.588 25.6374 106.309 25.8113C106.25 25.8473 106.167 25.8292 106.137 25.769C106.137 25.763 106.125 25.763 106.125 25.7509C104.452 26.8486 102.328 27.9094 100.125 28.8318C100.096 28.8919 100.042 28.9399 99.9711 28.9579C99.6266 29.0655 99.294 29.1672 98.9733 29.293C98.8902 29.3289 98.7952 29.3588 98.7061 29.4008C98.2312 29.5924 97.7622 29.8021 97.3113 30.0419C97.0871 30.4444 96.9645 30.9072 96.8715 31.37C96.7669 31.8869 96.6862 32.4098 96.5279 32.9026C95.2617 36.7847 93.7354 39.7764 90.5417 42.4109C90.1743 42.7109 87.9036 44.3066 86.8287 44.6777C86.5911 44.7675 86.389 44.7912 86.2699 44.767C86.1568 44.7488 86.0791 44.6885 86.0193 44.6103C85.9235 44.4839 85.875 44.3034 85.8739 44.0629C85.8725 43.7924 85.9482 43.4377 86.0593 43.0351C86.4924 41.5747 87.5652 39.5142 87.8306 39.0576C89.7482 35.7779 92.2674 32.6614 95.4279 30.544L95.4101 30.556C94.7151 30.7773 94.0142 30.9867 93.3012 31.1719C92.719 31.3273 92.1307 31.4707 91.5424 31.59C91.3522 31.6318 91.162 31.6676 90.9599 31.7033C90.8648 31.7212 90.7697 31.7331 90.6627 31.751C90.5498 31.7688 90.4368 31.7927 90.318 31.8105C89.9554 31.8701 89.5927 31.9236 89.242 31.9712C88.4156 32.0841 87.5773 32.191 86.739 32.2739C86.3287 32.3093 85.9184 32.3507 85.52 32.3862C85.4071 32.416 85.2942 32.4459 85.1694 32.4698C85.1695 32.4878 85.1576 32.4998 85.1518 32.5179C82.1558 39.1388 76.6429 44.4271 69.3733 45.6482C68.9572 45.7136 66.2471 46.2505 64.9628 46.3807C64.5822 46.4162 64.3145 46.4098 64.2072 46.3675C64.0761 46.3192 64.0162 46.2349 63.9979 46.1387C63.9797 46.0605 63.9793 45.9763 64.0323 45.8802C64.0677 45.8141 64.1387 45.7241 64.2215 45.64C64.3044 45.556 64.4111 45.466 64.4583 45.3999C64.7893 44.9495 65.1382 44.5232 65.4155 44.0426C66.2826 42.5228 67.175 41.2917 68.4422 40.0912C73.085 35.7094 82.9686 32.5324 82.9686 32.5324C77.2408 32.7338 71.58 32.0394 66.0978 30.1368C66.0859 30.1368 66.0859 30.1368 66.08 30.1368C64.3786 30.1281 62.722 30.7748 61.1378 31.6441C59.524 32.5254 57.9766 33.6233 56.553 34.4868C54.0499 36.004 51.2943 36.9737 48.3809 37.2877C46.7636 37.4595 45.1632 37.4149 43.5384 37.262C43.0503 37.2131 42.5741 37.1523 42.092 37.0974C41.8896 37.079 41.6932 37.0487 41.4908 37.0183C41.4789 37.0183 41.3362 37.0301 41.2826 37.03C41.2052 37.0178 41.1575 36.9997 41.1217 36.9696C41.062 36.9274 41.0261 36.8732 41.0139 36.8131C40.9957 36.7529 40.9954 36.6808 41.0425 36.5907C41.1075 36.4826 41.2438 36.3806 41.4218 36.2907C41.7068 36.1648 42.1347 36.0813 42.3127 35.9914C43.1378 35.6079 43.992 35.1163 44.745 34.5884C46.1322 33.5985 47.3173 32.6203 48.9205 31.9976C52.6079 30.5785 56.3566 30.7588 60.2217 30.4162C61.744 30.2863 63.2055 29.8918 64.7092 29.6116C63.851 29.2855 63.0045 28.9174 62.1519 28.5313C57.7279 26.4801 54.2906 24.262 51.1754 22.2129C51.1457 22.2128 51.11 22.2128 51.0802 22.2007C49.0132 21.6383 47.0516 21.9598 45.1392 22.6122C43.1912 23.2765 41.3042 24.2716 39.4281 25.0382C36.7801 26.1223 33.3603 26.2792 30.5968 25.6134C29.757 25.4077 28.1191 25.0143 27.3672 24.5321C27.3017 24.514 27.2422 24.5018 27.1766 24.4837C27.1111 24.4656 27.0691 24.3994 27.0807 24.3272C27.0982 24.2611 27.1635 24.2191 27.2349 24.2313C27.2465 24.1712 27.282 24.1231 27.3412 24.0751C27.3709 24.0571 27.4183 24.0271 27.4956 24.0152C27.561 24.0033 27.6979 24.0156 27.7632 23.9976C27.9653 23.9559 28.1553 23.89 28.3455 23.8422C28.9158 23.6868 29.4383 23.4712 29.9785 23.2375C31.6111 22.5487 33.0457 21.4988 34.8047 21.1168C38.0197 20.4304 41.0755 21.259 44.2772 21.4985C46.1458 21.6337 47.9763 21.2639 49.8386 21.3269C49.1045 20.8448 48.3765 20.3686 47.6605 19.9286C41.5682 16.1071 35.7498 13.5726 24.2889 15.3522L27.2258 14.9721ZM96.3154 30.7799L96.3214 30.7919C96.3332 30.7739 96.3332 30.7619 96.339 30.7438L96.3154 30.7799ZM89.4003 42.5774C89.7976 42.3015 90.1117 42.0675 90.2362 41.9835C93.347 39.4151 94.826 36.4894 96.063 32.7155C96.1099 32.5713 96.1448 32.415 96.1858 32.2647C96.0917 32.4931 95.9857 32.7274 95.8857 32.9497C95.5385 33.7368 95.2092 34.5299 94.7905 35.2868C93.5994 37.4735 92.2421 39.744 90.5376 41.5571C90.1884 41.9293 89.7795 42.2473 89.4003 42.5774ZM87.8567 43.2123C88.4905 42.6421 89.0763 42.0117 89.6265 41.3632C90.9161 39.8622 92.0028 38.2345 93.0954 36.5828C94.1406 34.9972 95.3281 33.2915 96.0571 31.4829C95.7918 31.9815 95.455 32.462 95.1777 32.9426C94.7058 33.7595 94.2636 34.5885 93.732 35.3753C93.0409 36.3963 92.2365 37.3571 91.4916 38.3299C90.6049 39.4949 89.6765 40.6418 88.8077 41.8189C88.4946 42.2754 88.2055 42.7739 87.8567 43.2123ZM95.6681 31.0073C92.6144 33.0828 90.1781 36.1152 88.2899 39.3049C88.0362 39.7374 86.987 41.7379 86.5655 43.1621C86.4601 43.4987 86.3961 43.8052 86.3972 44.0397C86.3973 44.0577 86.3974 44.0758 86.3975 44.0998C86.4735 43.8234 86.615 43.559 86.7089 43.2826C86.8145 42.9762 86.8664 42.6395 86.9898 42.3271C87.3367 41.4799 87.916 40.7112 88.3881 39.9303C88.7541 39.3357 89.0782 38.7109 89.4741 38.1403C90.1476 37.1794 90.9346 36.3028 91.6917 35.4082C92.5316 34.4174 93.3596 33.4087 94.2353 32.436C94.7029 31.9437 95.1945 31.4876 95.6681 31.0073ZM86.6887 44.0342C86.748 43.9861 86.8012 43.9261 86.8486 43.8781C87.1318 43.4035 87.3554 42.8928 87.6387 42.4243C87.922 41.9498 88.2649 41.5174 88.5661 41.0549C88.8968 40.5564 89.1917 40.0278 89.5284 39.5353C90.2847 38.4603 91.1542 37.4455 91.9523 36.4006C93.1463 34.8212 94.3045 33.2057 95.4389 31.5842C95.0954 31.9203 94.7461 32.2565 94.4266 32.6107C93.5567 33.5713 92.7347 34.5801 91.8888 35.5708C91.1435 36.4535 90.3565 37.318 89.6949 38.285C89.299 38.8555 88.9749 39.4803 88.6208 40.063C88.1485 40.8198 87.5811 41.5825 87.246 42.4177C87.1226 42.7181 87.0647 43.0427 86.965 43.3492C86.8829 43.5955 86.7709 43.8118 86.6887 44.0342ZM87.4939 43.2358C87.914 42.7614 88.2384 42.1788 88.6107 41.6683C89.4794 40.4852 90.4079 39.3383 91.2946 38.1793C92.0454 37.2065 92.8439 36.2577 93.5291 35.2367C94.0488 34.4559 94.491 33.6389 94.957 32.822C95.0986 32.5697 95.258 32.3294 95.4115 32.0831C94.354 33.6026 93.2667 35.104 92.1554 36.5753C91.3693 37.6263 90.5115 38.623 89.7553 39.71C89.4126 40.2025 89.1236 40.7191 88.7929 41.2236C88.4917 41.6741 88.1488 42.1065 87.8774 42.581C87.7356 42.7852 87.6178 43.0135 87.4939 43.2358ZM88.2552 43.2009C88.5515 42.9669 88.8418 42.7268 89.1203 42.4808C89.5409 42.1147 89.9854 41.7787 90.3642 41.3764C92.0509 39.5754 93.4024 37.3288 94.5817 35.1602C94.8646 34.6316 95.1119 34.0908 95.3532 33.5501C94.722 34.6554 94.0014 35.7245 93.334 36.7335C92.2355 38.3852 91.131 40.0249 89.8414 41.5319C89.3326 42.1143 88.8119 42.6787 88.2552 43.2009ZM74.6079 20.9392C75.6706 21.7285 76.9288 22.3498 77.9794 23.091C81.9549 25.8871 86.1789 28.4009 90.6909 30.1998C87.3487 27.9699 83.7581 26.0162 80.3157 23.9725C78.4185 22.8452 76.6991 21.5798 74.6079 20.9392ZM77.3192 24.3345C77.4148 24.4189 77.5223 24.5152 77.6239 24.6056C77.6896 24.6658 77.7553 24.72 77.827 24.7803C81.0587 27.5391 86.0043 30.4389 90.4786 30.5782C88.912 30.1609 87.4393 29.4732 85.9195 28.8875C83.0109 27.7346 79.8928 26.3408 77.3192 24.3345ZM74.0585 20.4934C74.0764 20.5115 74.0883 20.5235 74.1063 20.5416C76.4767 21.1165 78.3514 22.5144 80.4395 23.7563C83.524 25.5889 86.721 27.3376 89.7466 29.2904C86.3064 26.4832 82.6283 23.6635 78.5453 22.0036C77.0789 21.388 75.636 20.7124 74.0585 20.4934ZM74.5915 21.2458C77.3576 24.8998 81.895 27.0293 86.0134 28.6292C87.2531 29.1121 88.4634 29.6612 89.7206 30.078C85.5121 28.2977 81.5625 25.9225 77.8257 23.2952C76.817 22.5901 75.6243 21.993 74.5915 21.2458ZM76.2821 20.2324C77.1873 20.4382 78.1052 20.8125 78.874 21.0842C81.2396 21.8876 85.4999 24.5399 87.3705 26.3285C88.0519 26.985 88.6976 27.6474 89.367 28.2978C88.983 27.6298 88.611 26.9678 88.1505 26.456C86.6971 24.8364 83.1518 22.4318 79.7487 21.1277C78.5388 20.6689 77.3474 20.3363 76.2821 20.2324ZM74.7776 20.3623C76.1116 20.653 77.3696 21.2322 78.6512 21.7573C82.5077 23.3326 86.0122 25.9175 89.2791 28.5742C88.5798 27.8997 87.9102 27.2012 87.2049 26.5267C85.3582 24.7621 81.1515 22.134 78.8038 21.3427C78.1245 21.1071 77.3556 20.7932 76.5633 20.5755C75.9616 20.4002 75.3484 20.3031 74.7776 20.3623ZM84.475 32.8114L84.4869 32.8114L84.4987 32.7814L84.475 32.8114ZM70.5652 44.8564C71.1357 44.725 71.6881 44.5576 72.2404 44.366C75.3559 42.7596 78.5349 39.542 80.7255 37.3749C82.099 36.0063 83.4621 34.9442 84.2387 33.1417C81.9829 36.5953 78.46 38.8264 75.3194 41.3707C73.7552 42.6669 72.304 43.9813 70.5652 44.8564ZM67.0943 45.5183C68.1285 45.3336 69.1092 45.1487 69.341 45.107L69.3529 45.107C71.5976 44.2989 73.2913 42.7022 75.1578 41.178C78.0199 38.8437 81.2104 36.7865 83.4507 33.8139C82.2666 34.9964 81.0648 36.191 79.7729 37.2291C77.3848 39.1493 74.6974 40.6783 72.1236 42.3517C70.2675 43.5572 68.8929 44.7095 67.0943 45.5183ZM65.8987 44.3139C68.286 42.2254 71.2301 40.8652 73.9768 39.2882C77.299 37.3876 80.37 35.2159 83.4345 32.93C83.3217 32.9599 83.2088 32.9958 83.0841 33.0377C82.7999 33.3258 82.4502 33.5958 82.0588 33.8477C81.0506 34.4895 79.8277 35.0166 79.0864 35.4965C76.6847 37.0619 74.3065 38.5793 71.7668 39.9161C69.9629 40.8572 68.1937 41.5879 66.7368 42.9504C66.4533 43.3708 66.1818 43.8153 65.9163 44.2779C65.9105 44.2899 65.9105 44.3019 65.8987 44.3139ZM65.1425 45.407C70.9621 42.0372 76.9318 38.9622 81.9665 34.4368C82.4048 34.0407 82.8791 33.6987 83.3294 33.3327C80.3419 35.5526 77.336 37.6582 74.0969 39.5229C71.0298 41.2797 67.7353 42.7656 65.2253 45.2989C65.2016 45.3289 65.1721 45.371 65.1425 45.407ZM73.7783 43.7672C77.613 42.0477 80.7634 39.0705 83.0362 35.4486C82.3913 36.1811 81.6509 36.8353 80.9049 37.5736C79.034 39.4225 76.4469 42.0338 73.7783 43.7672ZM64.9007 45.8515C65.0732 45.8338 65.2694 45.816 65.5013 45.7863C65.6142 45.7685 65.7272 45.7566 65.8461 45.7388C68.2516 44.961 69.7679 43.5985 71.9977 42.1471C74.5596 40.4856 77.2352 38.9567 79.6233 37.0425C80.7789 36.1124 81.8624 35.0499 82.934 33.9934C82.6673 34.2034 82.4007 34.4134 82.146 34.6475C76.821 39.419 70.4472 42.5835 64.3135 46.1993L64.9007 45.8515ZM67.3573 42.0976C68.6673 41.1076 70.1514 40.4667 71.6705 39.6754C74.2043 38.3507 76.5765 36.8333 78.9663 35.2738C79.7076 34.794 80.9306 34.2668 81.9388 33.6251C82.1167 33.5111 82.2887 33.3972 82.4487 33.2711C80.7272 34.038 79.1078 34.9975 77.4343 35.8546C74.0992 37.5328 70.7995 39.169 67.8659 41.4731C67.6884 41.6773 67.5169 41.8874 67.3573 42.0976ZM68.9906 40.3085C71.5992 38.4728 74.442 37.0704 77.2964 35.6139C78.4951 35.0025 79.6697 34.337 80.8744 33.7196C76.5447 35.1858 72.2834 37.2594 68.9906 40.3085ZM58.5379 14.3662C59.8905 16.0458 60.6798 18.1274 61.7892 19.9569C63.8402 23.3572 66.4368 26.4157 69.5244 28.9097C70.1156 29.3796 70.6836 29.9697 71.2928 30.4637C71.3286 30.4818 71.3585 30.5119 71.4002 30.53C71.3046 30.4457 71.2209 30.3554 71.1253 30.2711C70.4262 29.6266 69.7685 28.9522 69.099 28.2717C66.4566 25.592 64.1999 22.6964 62.1382 19.5366C61.0235 17.8333 60.0321 15.7996 58.5379 14.3662ZM62.5609 23.3071C62.8311 23.8186 63.119 24.3 63.4066 24.7334C64.6827 26.5933 67.2143 28.4972 69.1295 29.6546C69.6068 29.944 70.1019 30.2334 70.6267 30.5048C69.7854 29.9743 68.9912 29.3538 68.2091 28.7754C66.1791 27.257 64.1417 25.42 62.5609 23.3071ZM62.2251 16.5846C62.8352 17.271 63.4216 17.9814 63.9665 18.7158C65.3376 20.5398 66.4423 22.6278 67.6236 24.5777C68.3612 25.7934 69.1224 26.967 69.9727 28.1047C69.6365 27.4789 69.3003 26.8531 68.9286 26.2452C68.0173 24.7828 66.9932 23.3803 66.1294 21.8878C65.5415 20.8768 65.1376 19.7698 64.5437 18.7468C64.3045 18.4879 64.0653 18.235 63.7964 17.982C63.2765 17.4942 62.7506 17.0184 62.2251 16.5846ZM59.9982 14.9517C60.2552 15.1866 60.5062 15.4275 60.7156 15.6744C61.3676 16.4149 61.9249 17.2636 62.5177 18.0582C64.3018 20.3998 65.9198 22.8434 67.5438 25.2991C68.185 26.2621 68.8676 27.1711 69.5917 28.05C68.8071 26.9666 68.0939 25.8712 67.3983 24.7217C66.217 22.7778 65.1123 20.7017 63.7531 18.8778C62.9029 17.7401 61.9636 16.6504 60.9652 15.6207C60.6607 15.3917 60.3324 15.1687 59.9982 14.9517ZM58.9905 14.4631C60.3359 15.8902 61.291 17.7917 62.3338 19.3926C64.3835 22.5344 66.6283 25.4179 69.2706 28.0796C69.3483 28.1579 69.426 28.2362 69.4918 28.3144C68.7259 27.3993 68.0075 26.4542 67.3363 25.4431C65.7064 22.9934 64.0944 20.5558 62.3222 18.2142C61.7294 17.4316 61.184 16.583 60.532 15.8545C60.0954 15.3607 59.5636 14.8849 58.9905 14.4631ZM60.9919 19.9256C61.2446 20.5032 61.4913 21.0928 61.7499 21.6584C63.399 24.3847 65.8849 26.7034 68.3507 28.5471C68.5239 28.6736 68.6851 28.8002 68.8583 28.9327C68.7627 28.8544 68.6791 28.7881 68.5895 28.7098C65.6332 26.3122 63.0067 23.2236 60.9919 19.9256ZM65.2976 19.6438C65.646 20.3539 65.953 21.0818 66.3429 21.7619C67.0509 23.0076 67.8894 24.1813 68.6626 25.379C67.6533 23.3272 66.6743 21.3896 65.2976 19.6438ZM57.6426 13.7576C58.1275 14.3776 58.5886 15.0036 58.9963 15.6656L59.0022 15.6536C59.0675 15.6237 59.1449 15.6418 59.175 15.714C59.7696 16.8874 60.2158 18.1146 60.8875 19.2521C62.4052 21.8458 64.3208 24.326 66.4846 26.4638C64.6074 24.5369 62.961 22.3818 61.5697 20.0708C60.3403 18.0367 59.5021 15.6845 57.8398 13.9382C57.7741 13.884 57.7084 13.8238 57.6426 13.7576ZM42.6064 36.4549C43.0642 36.3955 43.5219 36.324 43.9555 36.1864C44.5733 35.995 45.1249 35.6472 45.7488 35.4978C49.421 34.6198 53.1167 33.6877 56.6981 32.5029C57.7791 32.1499 58.836 31.7247 59.8928 31.2934C60.0353 31.2335 60.1896 31.1677 60.3321 31.1017C59.6075 31.3531 58.8406 31.4541 58.1098 31.6394C56.559 32.0217 55.0321 32.4341 53.4813 32.8165C50.9263 33.4498 48.3297 34.083 45.8474 34.9689C44.8853 35.3161 43.9598 35.8317 43.0279 36.2571C42.8735 36.329 42.737 36.3889 42.6064 36.4549ZM45.187 34.9558C45.377 34.878 45.555 34.8001 45.7451 34.7343C48.2334 33.8423 50.8419 33.2091 53.4087 32.5699C54.9595 32.1875 56.4864 31.7751 58.0372 31.3927C58.4056 31.2971 58.7979 31.2316 59.1782 31.142C58.4172 31.249 57.6562 31.332 56.9073 31.4751C55.0114 31.8389 53.1519 32.365 51.262 32.7468C49.693 33.063 47.8201 33.2645 46.3844 34.0799C45.9872 34.3679 45.596 34.6559 45.187 34.9558ZM48.8718 36.6872C51.5352 36.3367 54.053 35.4148 56.3604 34.0235C57.2324 33.4958 58.1337 32.89 59.0767 32.2962C58.5424 32.5359 58.0142 32.7756 57.4919 33.0273C55.842 33.8423 54.1861 34.6334 52.4882 35.3582C51.2949 35.8674 50.0955 36.3404 48.8718 36.6872ZM43.0357 36.654L43.1905 36.6722C43.601 36.6849 44.0174 36.6735 44.4277 36.6381C45.3791 36.5434 46.2461 36.2382 47.1552 36.0051C48.3256 35.7003 49.5261 35.4497 50.6843 35.0788C51.6525 34.7616 52.5785 34.3422 53.5466 34.0131C55.1324 33.4865 56.694 32.8877 58.2198 32.2408C57.7447 32.4204 57.2696 32.588 56.7826 32.7496C53.1893 33.9404 49.4816 34.8664 45.8095 35.7565C45.1916 35.9118 44.64 36.2537 44.0341 36.4391C43.7015 36.5468 43.3568 36.6124 43.0179 36.6599L43.0358 36.66L43.0357 36.654ZM47.5347 33.3001C48.7345 32.9052 50.0424 32.7269 51.2072 32.4942C53.0972 32.1124 54.9626 31.5863 56.8526 31.2225C57.0903 31.1748 57.3281 31.1391 57.5777 31.0974C54.7289 31.2492 51.9456 31.3951 49.1904 32.461C48.5848 32.6945 48.0448 32.9823 47.5347 33.3001ZM44.9997 36.8254C45.678 36.8565 46.3503 36.8636 47.0284 36.8467C48.883 36.543 50.6406 35.8784 52.3859 35.1235C53.781 34.5185 55.1402 33.8833 56.5053 33.2241C55.5553 33.5954 54.5932 33.9426 53.6192 34.2717C52.6571 34.6009 51.7311 35.0203 50.757 35.3374C49.5987 35.7084 48.3983 35.971 47.2219 36.2638C46.4732 36.449 45.7486 36.6883 44.9997 36.8254ZM33.1005 25.4611C35.2071 25.6087 37.4484 25.3116 39.3008 24.557C40.7376 23.97 42.1797 23.2508 43.6521 22.6459C43.4263 22.6996 43.2066 22.7715 42.9987 22.8493C40.0057 23.9328 36.8292 25.2084 33.6239 25.4318C33.4514 25.4376 33.273 25.4493 33.1005 25.4611ZM32.5926 22.5322C33.4486 22.4013 34.335 22.4087 35.2213 22.3921C36.3991 22.3759 37.6004 22.2816 38.7785 22.3376C39.433 22.3687 40.1114 22.4178 40.7778 22.4369C41.5566 22.3299 42.3473 22.229 43.1261 22.116C43.1142 22.1159 43.0963 22.1159 43.0904 22.1159C41.7697 22.1198 40.4719 21.9194 39.1568 21.8331C37.2406 21.6978 35.2418 21.7127 33.3701 22.1607C33.103 22.2805 32.8478 22.4063 32.5926 22.5322ZM34.9975 21.6161C36.3887 21.456 37.7928 21.4762 39.1674 21.5746C40.3755 21.6607 41.578 21.8369 42.7857 21.8569C40.1846 21.5522 37.642 21.0551 34.9975 21.6161ZM29.9687 24.903C30.2248 24.9695 30.4571 25.03 30.6656 25.0784C31.6358 25.1942 32.6057 25.2438 33.6167 25.1793C36.7566 24.9558 39.856 23.7281 42.7896 22.6505C42.635 22.6683 42.4863 22.6801 42.3257 22.6859C41.6958 22.8292 41.072 22.9905 40.4422 23.1459C38.6062 23.6059 36.7948 24.2464 34.9166 24.5741C33.2879 24.8421 31.617 25.0018 29.9687 24.903ZM28.5568 24.4799L28.5866 24.4919C30.6643 24.8199 32.8052 24.673 34.8678 24.3215C36.7342 24.0058 38.5396 23.3653 40.3756 22.9053C40.6251 22.8455 40.8687 22.7798 41.1182 22.714C41.0112 22.7139 40.91 22.7137 40.8029 22.7015C38.3357 23.0343 35.8744 23.3491 33.4192 23.712C32.6583 23.825 31.8854 23.914 31.1246 24.045C30.2806 24.206 29.4131 24.4091 28.5389 24.4738L28.5568 24.4799ZM29.1263 24.1501C29.7802 24.0549 30.4279 23.9116 31.0758 23.7984C31.8366 23.6553 32.6095 23.5664 33.3763 23.4533C35.3618 23.1559 37.3594 22.9005 39.351 22.6331C39.1487 22.6207 38.9583 22.6144 38.7619 22.6021C37.5897 22.5401 36.3944 22.6344 35.2107 22.6566C34.0091 22.6727 32.7894 22.6407 31.6729 23.0178C31.1982 23.2695 30.7234 23.5093 30.2307 23.7189C29.8685 23.8627 29.5063 24.0184 29.1263 24.1501ZM37.941 13.997C37.959 14.015 37.9709 14.0271 37.9889 14.0451C38.0844 14.1234 38.1919 14.2018 38.2874 14.2741C38.2994 14.2861 38.3054 14.2921 38.3173 14.3042C38.3352 14.3162 38.3531 14.3223 38.365 14.3343C38.2395 14.2018 38.1258 14.0634 38.0121 13.9189C38.0002 13.9369 37.9944 13.9549 37.9826 13.979C37.9648 13.985 37.9589 13.997 37.941 13.997ZM29.3269 6.58199C30.2077 7.88207 31.1121 9.14612 32.2359 10.2722C33.1445 11.1695 34.2782 11.8748 35.3227 12.5919C35.9911 13.0439 36.6893 13.4899 37.3933 13.9119L37.3575 13.8818C36.8439 13.4661 36.3421 13.0324 35.8462 12.5987C35.5237 12.3277 35.1951 12.0506 34.8726 11.7795C33.3256 10.4844 31.803 9.32758 30.4276 7.84634C30.0628 7.44293 29.6919 7.02147 29.3269 6.58199ZM26.8044 0.397185C29.1561 2.01826 31.1709 4.08372 32.8656 6.40721C33.9077 7.85185 34.9382 9.35058 35.9329 10.8312C36.2685 11.3428 36.616 11.8604 36.9991 12.342C36.855 12.0833 36.7228 11.8125 36.5966 11.5417C36.4407 11.289 36.2908 11.0422 36.1349 10.7895C34.9712 8.79749 33.6117 6.91344 32.1753 5.11945C31.3973 4.15623 30.6605 3.10288 29.7226 2.29573C29.1137 1.84984 28.481 1.42797 27.8484 1.01211C27.5024 0.801124 27.1564 0.602166 26.8044 0.397185ZM27.6537 1.34248C29.6438 3.21551 31.2432 5.50277 32.8662 7.754C33.8425 9.12038 34.985 10.4149 36.1035 11.6672C36.2769 11.8599 36.4385 12.0526 36.612 12.2572C36.3066 11.8419 36.0189 11.4086 35.7313 10.9752C34.7425 9.48856 33.7181 7.99585 32.676 6.55121C31.2328 4.59488 29.5585 2.81855 27.6537 1.34248ZM25.8276 0.155142C26.3958 0.781337 26.9106 1.43751 27.455 2.0817C28.873 3.76142 30.3087 5.39307 31.6674 7.11478C32.6071 8.30073 33.5707 9.51677 34.6171 10.6067C35.1731 11.1848 35.735 11.7448 36.3029 12.3109C36.1713 12.1543 36.0337 12.0038 35.9021 11.8473C34.7835 10.5829 33.6351 9.29441 32.6468 7.90397C30.6343 5.07493 28.6275 2.19178 25.8276 0.155142ZM25.076 -0.278944C25.43 0.346912 25.7781 0.984783 26.1974 1.58068C27.6168 3.549 29.291 5.30128 30.8881 7.11956C32.4972 8.9499 34.1895 10.7683 36.0177 12.3946L36.0536 12.4247C35.5096 11.8827 34.9656 11.3347 34.4276 10.7868C33.3752 9.68481 32.4056 8.46274 31.46 7.27679C30.1012 5.54907 28.6656 3.92944 27.2476 2.24973C26.5475 1.40086 25.8591 0.509927 25.076 -0.278944ZM31.1559 3.44637C31.5688 3.94606 31.958 4.46976 32.3649 4.96944C33.544 6.44436 34.6758 7.97933 35.6829 9.58023C35.3642 8.87627 35.0217 8.16626 34.6078 7.46816C33.6841 5.89744 32.494 4.59687 31.1559 3.44637ZM27.4445 3.59683C27.5705 3.81949 27.6965 4.04215 27.8166 4.2648C28.6907 5.42057 29.6543 6.63662 30.6112 7.67227C31.4842 8.60559 32.4162 9.41874 33.3718 10.2079C32.4511 9.26247 31.5659 8.28104 30.6926 7.28761C29.6218 6.05336 28.4976 4.84909 27.4445 3.59683ZM11.8337 13.2522C13.1067 13.2422 14.392 13.3224 15.6718 13.4807C17.6064 13.7183 19.4937 14.0339 21.4288 14.3977C22.2565 14.5554 23.1079 14.707 23.953 14.7685C22.7318 14.4359 21.5338 13.953 20.2355 13.6563C17.5137 13.0087 14.6337 12.8598 11.8337 13.2522ZM10.3086 16.5025C13.2023 17.0242 16.2603 17.0711 19.0656 16.5344C20.4088 16.278 21.7097 15.8832 23.0225 15.4885C21.786 15.6789 20.5494 15.8333 19.3127 15.9817C16.2865 16.3497 13.3077 16.6816 10.3086 16.5025ZM8.12295 16C8.13484 16.0001 8.14085 16.0121 8.15275 16.0121C11.8855 16.5892 15.5421 16.1801 19.2818 15.7291C20.4709 15.5867 21.648 15.4322 22.8369 15.2537C22.706 15.2415 22.5691 15.2232 22.444 15.205C21.3322 15.3295 20.2087 15.5081 19.1027 15.6146C16.3972 15.8688 13.6968 15.9547 10.9725 16.0166C9.9435 16.039 9.02747 16.0616 8.12295 16ZM9.62865 13.6696C12.0558 13.6614 14.484 13.8877 16.8534 14.2522C18.1393 14.4466 19.5789 14.4369 20.865 14.6614C21.1805 14.722 21.4842 14.7766 21.7819 14.8372C21.9902 14.8375 22.1984 14.8379 22.4065 14.8262C22.0612 14.7655 21.7337 14.7109 21.3884 14.6382C19.4532 14.2804 17.5659 13.9587 15.6433 13.7272C13.7504 13.4897 11.8643 13.4326 9.96142 13.592C9.88417 13.6099 9.81879 13.6218 9.75344 13.6397C9.71185 13.6517 9.66431 13.6636 9.62865 13.6696ZM3.49921 14.4716C7.00692 15.2587 10.6895 15.3006 14.2406 15.2281C16.1917 15.1951 18.1131 15.1681 20.0578 15.0569C19.9448 15.0567 19.8377 15.0446 19.7246 15.0444C17.9339 15.0115 16.1727 14.9546 14.3815 14.8435C11.1384 14.634 6.79525 14.5429 3.49921 14.4716ZM5.7588 14.2647C8.62651 14.3354 11.8513 14.4307 14.4041 14.585C16.1834 14.6961 17.9445 14.753 19.7293 14.7858C19.8067 14.786 19.878 14.7861 19.9554 14.7862C18.9197 14.6763 17.8131 14.6505 16.813 14.4926C13.9733 14.0673 11.0215 13.8281 8.11905 13.9618C7.34632 14.0929 6.54368 14.1878 5.7588 14.2647ZM4.92357 15.0029C5.57302 15.2144 6.22238 15.4078 6.87183 15.6193C8.23505 15.8078 9.47231 15.7857 10.9653 15.752C13.6301 15.6901 16.283 15.6161 18.929 15.3678C17.3707 15.4315 15.8182 15.4591 14.2478 15.4866C11.1785 15.5419 7.98975 15.5188 4.92357 15.0029Z" fill="url(#paint0_linear_109_164)"/>
</g>
<defs>
<linearGradient id="paint0_linear_109_164" x1="106.716" y1="33.1125" x2="15.7625" y2="19.0202" gradientUnits="userSpaceOnUse">
<stop stop-color="#E0B143"/>
<stop offset="1" stop-color="#37ABB8"/>
</linearGradient>
<clipPath id="clip0_109_164">
<rect width="110" height="50" fill="white" transform="matrix(-1 0 0 1 110 0)"/>
</clipPath>
</defs>
</svg>
