<svg width="110" height="50" viewBox="0 0 110 50" fill="none" xmlns="http://www.w3.org/2000/svg">
<g clip-path="url(#clip0_109_165)">
<path fill-rule="evenodd" clip-rule="evenodd" d="M82.7742 14.9721C82.8096 15.0201 82.869 15.0501 82.9344 15.056C83.1543 15.0857 83.3744 15.0914 83.5885 15.103C86.031 15.6283 88.3821 16.5805 90.8308 17.0456C94.7595 17.791 99.1693 17.4353 102.971 16.2148C104.246 15.8099 105.526 15.4471 106.772 14.9401C106.975 14.8616 107.338 14.7649 107.648 14.6501C107.904 14.5535 108.125 14.4269 108.251 14.2944C108.328 14.2102 108.317 14.132 108.317 14.0719C108.306 13.9937 108.27 13.9397 108.193 13.8857C108.163 13.8677 108.116 13.8497 108.051 13.8498C108.009 13.8499 107.943 13.862 107.908 13.8621C107.67 13.8685 107.432 13.8809 107.194 13.8933C106.611 13.9243 106.022 13.9132 105.445 13.866C103.762 13.7123 102.02 13.5527 100.374 13.1525C96.8859 12.3103 93.1439 12.3463 89.636 13.1635C88.0221 13.5388 86.5672 14.2205 85.0014 14.4875L84.9895 14.4876C83.1644 14.2319 81.3151 14.0605 79.4593 14.0153C77.7164 13.982 75.973 14.0569 74.2407 14.3122C73.6097 14.3973 72.9904 14.5186 72.3711 14.6518C73.2599 14.1394 74.1192 13.5969 74.9429 13.0364C76.0113 12.3012 77.1748 11.5899 78.1073 10.6625C79.6256 9.15096 80.7227 7.40562 81.9268 5.6601C82.4361 4.91976 82.8208 4.08943 83.3004 3.32509C83.828 2.48852 84.4386 1.6879 84.9662 0.839307C85.29 0.321723 85.6374 -0.183873 85.9731 -0.695463C86.0809 -0.851958 86.1708 -0.996399 86.2905 -1.14089C86.3384 -1.20109 86.4518 -1.27342 86.4997 -1.33362C86.5475 -1.39382 86.5775 -1.44798 86.5837 -1.49007C86.602 -1.58029 86.5844 -1.6464 86.5371 -1.70044C86.5016 -1.74848 86.4425 -1.80851 86.3295 -1.81434C86.1511 -1.8321 85.9306 -1.75359 85.698 -1.63297C85.4415 -1.48827 85.1609 -1.27739 84.9938 -1.1689C83.9558 -0.572024 82.8764 -0.0352071 81.862 0.609731C79.1409 2.35765 76.6088 4.37583 74.9293 7.22839C73.9216 8.93752 73.324 10.7242 72.4479 12.2888C71.6618 13.697 70.6446 14.9131 68.8801 15.6734C66.383 16.6033 64.1402 17.8575 61.8548 19.286C57.7615 21.8538 53.5463 25.011 47.4291 27.8405C45.2826 28.836 43.0956 29.6271 40.8975 30.2318C40.9631 30.1896 41.0288 30.1534 41.1003 30.1172C43.0692 28.9297 45.6724 26.9715 46.9904 25.0514C48.5362 22.7763 49.7132 19.2691 50.9925 16.7539C51.509 15.731 52.1617 14.8461 52.874 13.9551C53.0296 13.7625 53.2925 13.5096 53.5139 13.2507C53.6874 13.046 53.8193 12.8353 53.8797 12.6428C53.922 12.5165 53.8807 12.4384 53.8512 12.3904C53.804 12.3123 53.7269 12.2643 53.6019 12.2765C53.5662 12.2766 53.5066 12.2947 53.4469 12.3369C53.3813 12.3851 53.2677 12.4935 53.2021 12.5297C53.0111 12.6562 52.832 12.7828 52.6352 12.8973C52.0743 13.253 51.4602 13.5365 50.8816 13.8561C50.6549 13.9827 50.4222 14.1153 50.2015 14.242C50.1541 14.212 50.0886 14.2121 50.0468 14.2602C49.9691 14.3385 49.8914 14.4048 49.8196 14.4831C48.9723 15.0255 48.1783 15.604 47.4018 16.2485C47.3543 16.2185 47.2889 16.2187 47.253 16.2668C46.9004 16.5981 46.5537 16.9353 46.2367 17.2905C46.1112 17.405 45.9798 17.5314 45.8542 17.6579C43.4038 20.0006 42.0579 22.7805 40.5859 25.7831C40.0752 26.824 39.6236 27.9431 39.0121 28.9241C38.4186 29.8689 37.683 30.6758 36.5861 31.1405C36.4907 31.1827 36.3835 31.219 36.2881 31.2492C30.9598 32.0873 25.5172 31.9516 20.0484 31.1005C24.4938 30.7628 29.3142 27.9293 32.51 25.2066C32.5758 25.1464 32.6415 25.0922 32.7132 25.0319C33.9915 23.9416 35.0564 22.7074 36.0267 21.329C36.0926 21.2387 36.2301 21.1062 36.3319 20.9618C36.4277 20.8354 36.5116 20.709 36.5419 20.5947C36.5722 20.4864 36.5726 20.3902 36.5314 20.3061C36.4961 20.222 36.4252 20.1319 36.3064 20.078C34.7511 19.395 32.4411 19.7775 30.081 20.6831C26.5885 22.0173 22.9715 24.4822 21.4881 26.15C20.8003 26.9206 20.2893 28.0217 19.666 28.9667C19.1567 29.7371 18.5764 30.4054 17.7186 30.6532C12.9352 29.5124 5.53701 26.59 2.47538 23.7029C2.32141 23.5588 2.08339 23.5712 1.93989 23.7218C1.82625 23.8482 1.80756 24.0226 1.87825 24.1668C1.86031 24.1849 1.86017 24.2149 1.84818 24.233C1.81858 24.203 1.78893 24.185 1.76528 24.155C1.70602 24.1069 1.63457 24.1191 1.58675 24.1673C1.53887 24.2275 1.55042 24.2996 1.59775 24.3536C1.95906 24.6777 2.34438 24.9597 2.74162 25.2357C2.78312 25.2656 2.83666 25.2656 2.8725 25.2354C3.13921 25.4394 3.41191 25.6374 3.69066 25.8113C3.74998 25.8473 3.83335 25.8292 3.86338 25.769C3.86341 25.763 3.87531 25.763 3.87537 25.7509C5.54765 26.8486 7.67223 27.9094 9.87481 28.8318C9.90427 28.8919 9.95758 28.9399 10.0289 28.9579C10.3734 29.0655 10.706 29.1672 11.0267 29.293C11.1098 29.3289 11.2048 29.3588 11.2939 29.4008C11.7688 29.5924 12.2378 29.8021 12.6887 30.0419C12.9129 30.4444 13.0355 30.9072 13.1285 31.37C13.2331 31.8869 13.3138 32.4098 13.4721 32.9026C14.7383 36.7847 16.2646 39.7764 19.4583 42.4109C19.8257 42.7109 22.0964 44.3066 23.1713 44.6777C23.4089 44.7675 23.611 44.7912 23.7301 44.767C23.8432 44.7488 23.9209 44.6885 23.9807 44.6103C24.0765 44.4839 24.125 44.3034 24.1261 44.0629C24.1275 43.7924 24.0518 43.4377 23.9407 43.0351C23.5076 41.5747 22.4348 39.5142 22.1694 39.0576C20.2518 35.7779 17.7326 32.6614 14.5721 30.544L14.5899 30.556C15.2849 30.7773 15.9858 30.9867 16.6988 31.1719C17.281 31.3273 17.8693 31.4707 18.4576 31.59C18.6478 31.6318 18.838 31.6676 19.0401 31.7033C19.1352 31.7212 19.2303 31.7331 19.3373 31.751C19.4502 31.7688 19.5632 31.7927 19.682 31.8105C20.0446 31.8701 20.4073 31.9236 20.758 31.9712C21.5844 32.0841 22.4227 32.191 23.261 32.2739C23.6713 32.3093 24.0816 32.3507 24.48 32.3862C24.5929 32.416 24.7058 32.4459 24.8306 32.4698C24.8305 32.4878 24.8424 32.4998 24.8482 32.5179C27.8442 39.1388 33.3571 44.4271 40.6267 45.6482C41.0428 45.7136 43.7529 46.2505 45.0372 46.3807C45.4178 46.4162 45.6855 46.4098 45.7928 46.3675C45.9239 46.3192 45.9838 46.2349 46.0021 46.1387C46.0203 46.0605 46.0207 45.9763 45.9677 45.8802C45.9323 45.8141 45.8613 45.7241 45.7785 45.64C45.6956 45.556 45.5889 45.466 45.5417 45.3999C45.2107 44.9495 44.8618 44.5232 44.5845 44.0426C43.7174 42.5228 42.825 41.2917 41.5578 40.0912C36.915 35.7094 27.0314 32.5324 27.0314 32.5324C32.7592 32.7338 38.42 32.0394 43.9022 30.1368C43.9141 30.1368 43.9141 30.1368 43.92 30.1368C45.6214 30.1281 47.278 30.7748 48.8622 31.6441C50.476 32.5254 52.0234 33.6233 53.447 34.4868C55.9501 36.004 58.7057 36.9737 61.6191 37.2877C63.2364 37.4595 64.8368 37.4149 66.4616 37.262C66.9497 37.2131 67.4259 37.1523 67.908 37.0974C68.1104 37.079 68.3068 37.0487 68.5092 37.0183C68.5211 37.0183 68.6638 37.0301 68.7174 37.03C68.7948 37.0178 68.8425 36.9997 68.8783 36.9696C68.938 36.9274 68.9739 36.8732 68.9861 36.8131C69.0043 36.7529 69.0046 36.6808 68.9575 36.5907C68.8925 36.4826 68.7562 36.3806 68.5782 36.2907C68.2932 36.1648 67.8653 36.0813 67.6873 35.9914C66.8622 35.6079 66.008 35.1163 65.255 34.5884C63.8678 33.5985 62.6827 32.6203 61.0795 31.9976C57.3921 30.5785 53.6434 30.7588 49.7783 30.4162C48.256 30.2863 46.7945 29.8918 45.2908 29.6116C46.149 29.2855 46.9955 28.9174 47.8481 28.5313C52.2721 26.4801 55.7094 24.262 58.8246 22.2129C58.8543 22.2128 58.89 22.2128 58.9198 22.2007C60.9868 21.6383 62.9484 21.9598 64.8608 22.6122C66.8088 23.2765 68.6958 24.2716 70.5719 25.0382C73.2199 26.1223 76.6397 26.2792 79.4032 25.6134C80.243 25.4077 81.8809 25.0143 82.6328 24.5321C82.6983 24.514 82.7578 24.5018 82.8234 24.4837C82.8889 24.4656 82.9309 24.3994 82.9193 24.3272C82.9018 24.2611 82.8365 24.2191 82.7651 24.2313C82.7535 24.1712 82.718 24.1231 82.6588 24.0751C82.6291 24.0571 82.5817 24.0271 82.5044 24.0152C82.439 24.0033 82.3021 24.0156 82.2368 23.9976C82.0347 23.9559 81.8447 23.89 81.6545 23.8422C81.0842 23.6868 80.5617 23.4712 80.0215 23.2375C78.3889 22.5487 76.9543 21.4988 75.1953 21.1168C71.9803 20.4304 68.9245 21.259 65.7228 21.4985C63.8542 21.6337 62.0237 21.2639 60.1614 21.3269C60.8955 20.8448 61.6235 20.3686 62.3395 19.9286C68.4318 16.1071 74.2502 13.5726 85.7111 15.3522L82.7742 14.9721ZM13.6846 30.7799L13.6786 30.7919C13.6668 30.7739 13.6668 30.7619 13.661 30.7438L13.6846 30.7799ZM20.5997 42.5774C20.2024 42.3015 19.8883 42.0675 19.7638 41.9835C16.653 39.4151 15.174 36.4894 13.937 32.7155C13.8901 32.5713 13.8552 32.415 13.8142 32.2647C13.9083 32.4931 14.0143 32.7274 14.1143 32.9497C14.4615 33.7368 14.7908 34.5299 15.2095 35.2868C16.4006 37.4735 17.7579 39.744 19.4624 41.5571C19.8116 41.9293 20.2205 42.2473 20.5997 42.5774ZM22.1433 43.2123C21.5095 42.6421 20.9237 42.0117 20.3735 41.3632C19.0839 39.8622 17.9972 38.2345 16.9046 36.5828C15.8594 34.9972 14.6719 33.2915 13.9429 31.4829C14.2082 31.9815 14.545 32.462 14.8223 32.9426C15.2942 33.7595 15.7364 34.5885 16.268 35.3753C16.9591 36.3963 17.7635 37.3571 18.5084 38.3299C19.3951 39.4949 20.3235 40.6418 21.1923 41.8189C21.5054 42.2754 21.7945 42.7739 22.1433 43.2123ZM14.3319 31.0073C17.3856 33.0828 19.8219 36.1152 21.7101 39.3049C21.9638 39.7374 23.013 41.7379 23.4345 43.1621C23.5399 43.4987 23.6039 43.8052 23.6028 44.0397C23.6027 44.0577 23.6026 44.0758 23.6025 44.0998C23.5265 43.8234 23.385 43.559 23.2911 43.2826C23.1855 42.9762 23.1336 42.6395 23.0102 42.3271C22.6633 41.4799 22.084 40.7112 21.6119 39.9303C21.2459 39.3357 20.9218 38.7109 20.5259 38.1403C19.8524 37.1794 19.0654 36.3028 18.3083 35.4082C17.4684 34.4174 16.6404 33.4087 15.7647 32.436C15.2971 31.9437 14.8055 31.4876 14.3319 31.0073ZM23.3113 44.0342C23.252 43.9861 23.1988 43.9261 23.1514 43.8781C22.8682 43.4035 22.6446 42.8928 22.3613 42.4243C22.078 41.9498 21.7351 41.5174 21.4339 41.0549C21.1032 40.5564 20.8083 40.0278 20.4716 39.5353C19.7153 38.4603 18.8458 37.4455 18.0477 36.4006C16.8537 34.8212 15.6955 33.2057 14.5611 31.5842C14.9046 31.9203 15.2539 32.2565 15.5734 32.6107C16.4433 33.5713 17.2653 34.5801 18.1112 35.5708C18.8565 36.4535 19.6435 37.318 20.3051 38.285C20.701 38.8555 21.0251 39.4803 21.3792 40.063C21.8515 40.8198 22.4189 41.5825 22.754 42.4177C22.8774 42.7181 22.9353 43.0427 23.035 43.3492C23.1171 43.5955 23.2291 43.8118 23.3113 44.0342ZM22.5061 43.2358C22.086 42.7614 21.7616 42.1788 21.3893 41.6683C20.5206 40.4852 19.5921 39.3383 18.7054 38.1793C17.9546 37.2065 17.1561 36.2577 16.4709 35.2367C15.9512 34.4559 15.509 33.6389 15.043 32.822C14.9014 32.5697 14.742 32.3294 14.5885 32.0831C15.646 33.6026 16.7333 35.104 17.8446 36.5753C18.6307 37.6263 19.4885 38.623 20.2447 39.71C20.5874 40.2025 20.8764 40.7191 21.2071 41.2236C21.5083 41.6741 21.8512 42.1065 22.1226 42.581C22.2644 42.7852 22.3822 43.0135 22.5061 43.2358ZM21.7448 43.2009C21.4485 42.9669 21.1582 42.7268 20.8797 42.4808C20.4591 42.1147 20.0146 41.7787 19.6358 41.3764C17.9491 39.5754 16.5976 37.3288 15.4183 35.1602C15.1354 34.6316 14.8881 34.0908 14.6468 33.5501C15.278 34.6554 15.9986 35.7245 16.666 36.7335C17.7645 38.3852 18.869 40.0249 20.1586 41.5319C20.6674 42.1143 21.1881 42.6787 21.7448 43.2009ZM35.3921 20.9392C34.3294 21.7285 33.0712 22.3498 32.0206 23.091C28.0451 25.8871 23.8211 28.4009 19.3091 30.1998C22.6513 27.9699 26.2419 26.0162 29.6843 23.9725C31.5815 22.8452 33.3009 21.5798 35.3921 20.9392ZM32.6808 24.3345C32.5852 24.4189 32.4777 24.5152 32.3761 24.6056C32.3104 24.6658 32.2447 24.72 32.173 24.7803C28.9413 27.5391 23.9957 30.4389 19.5214 30.5782C21.088 30.1609 22.5607 29.4732 24.0805 28.8875C26.9891 27.7346 30.1072 26.3408 32.6808 24.3345ZM35.9415 20.4934C35.9236 20.5115 35.9117 20.5235 35.8937 20.5416C33.5233 21.1165 31.6486 22.5144 29.5605 23.7563C26.476 25.5889 23.279 27.3376 20.2534 29.2904C23.6936 26.4832 27.3717 23.6635 31.4547 22.0036C32.9211 21.388 34.364 20.7124 35.9415 20.4934ZM35.4085 21.2458C32.6424 24.8998 28.105 27.0293 23.9866 28.6292C22.7469 29.1121 21.5366 29.6612 20.2794 30.078C24.4879 28.2977 28.4375 25.9225 32.1743 23.2952C33.183 22.5901 34.3757 21.993 35.4085 21.2458ZM33.7179 20.2324C32.8127 20.4382 31.8948 20.8125 31.126 21.0842C28.7604 21.8876 24.5001 24.5399 22.6295 26.3285C21.9481 26.985 21.3024 27.6474 20.633 28.2978C21.017 27.6298 21.389 26.9678 21.8495 26.456C23.3029 24.8364 26.8482 22.4318 30.2513 21.1277C31.4612 20.6689 32.6526 20.3363 33.7179 20.2324ZM35.2224 20.3623C33.8884 20.653 32.6304 21.2322 31.3488 21.7573C27.4923 23.3326 23.9878 25.9175 20.7209 28.5742C21.4202 27.8997 22.0898 27.2012 22.7951 26.5267C24.6418 24.7621 28.8485 22.134 31.1962 21.3427C31.8755 21.1071 32.6444 20.7932 33.4367 20.5755C34.0384 20.4002 34.6516 20.3031 35.2224 20.3623ZM25.525 32.8114L25.5131 32.8114L25.5013 32.7814L25.525 32.8114ZM39.4348 44.8564C38.8643 44.725 38.3119 44.5576 37.7596 44.366C34.6441 42.7596 31.4651 39.542 29.2745 37.3749C27.901 36.0063 26.5379 34.9442 25.7613 33.1417C28.0171 36.5953 31.54 38.8264 34.6806 41.3707C36.2448 42.6669 37.696 43.9813 39.4348 44.8564ZM42.9057 45.5183C41.8715 45.3336 40.8908 45.1487 40.659 45.107L40.6471 45.107C38.4024 44.2989 36.7087 42.7022 34.8422 41.178C31.9801 38.8437 28.7896 36.7865 26.5493 33.8139C27.7334 34.9964 28.9352 36.191 30.2271 37.2291C32.6152 39.1493 35.3026 40.6783 37.8764 42.3517C39.7325 43.5572 41.1071 44.7095 42.9057 45.5183ZM44.1013 44.3139C41.714 42.2254 38.7699 40.8652 36.0232 39.2882C32.701 37.3876 29.63 35.2159 26.5655 32.93C26.6783 32.9599 26.7912 32.9958 26.9159 33.0377C27.2001 33.3258 27.5498 33.5958 27.9412 33.8477C28.9494 34.4895 30.1723 35.0166 30.9136 35.4965C33.3153 37.0619 35.6935 38.5793 38.2332 39.9161C40.0371 40.8572 41.8063 41.5879 43.2632 42.9504C43.5467 43.3708 43.8182 43.8153 44.0837 44.2779C44.0895 44.2899 44.0895 44.3019 44.1013 44.3139ZM44.8575 45.407C39.0379 42.0372 33.0682 38.9622 28.0335 34.4368C27.5952 34.0407 27.1209 33.6987 26.6706 33.3327C29.6581 35.5526 32.664 37.6582 35.9031 39.5229C38.9702 41.2797 42.2647 42.7656 44.7747 45.2989C44.7984 45.3289 44.8279 45.371 44.8575 45.407ZM36.2217 43.7672C32.387 42.0477 29.2366 39.0705 26.9638 35.4486C27.6087 36.1811 28.3491 36.8353 29.0951 37.5736C30.966 39.4225 33.5531 42.0338 36.2217 43.7672ZM45.0993 45.8515C44.9268 45.8338 44.7306 45.816 44.4987 45.7863C44.3858 45.7685 44.2728 45.7566 44.1539 45.7388C41.7484 44.961 40.2321 43.5985 38.0023 42.1471C35.4404 40.4856 32.7648 38.9567 30.3767 37.0425C29.2211 36.1124 28.1376 35.0499 27.066 33.9934C27.3327 34.2034 27.5993 34.4134 27.854 34.6475C33.179 39.419 39.5528 42.5835 45.6865 46.1993L45.0993 45.8515ZM42.6427 42.0976C41.3327 41.1076 39.8486 40.4667 38.3295 39.6754C35.7957 38.3507 33.4235 36.8333 31.0337 35.2738C30.2924 34.794 29.0694 34.2668 28.0612 33.6251C27.8833 33.5111 27.7113 33.3972 27.5513 33.2711C29.2728 34.038 30.8922 34.9975 32.5657 35.8546C35.9008 37.5328 39.2005 39.169 42.1341 41.4731C42.3116 41.6773 42.4831 41.8874 42.6427 42.0976ZM41.0094 40.3085C38.4008 38.4728 35.558 37.0704 32.7036 35.6139C31.5049 35.0025 30.3303 34.337 29.1256 33.7196C33.4553 35.1858 37.7166 37.2594 41.0094 40.3085ZM51.4621 14.3662C50.1095 16.0458 49.3202 18.1274 48.2108 19.9569C46.1598 23.3572 43.5632 26.4157 40.4756 28.9097C39.8844 29.3796 39.3164 29.9697 38.7072 30.4637C38.6714 30.4818 38.6415 30.5119 38.5998 30.53C38.6954 30.4457 38.7791 30.3554 38.8747 30.2711C39.5738 29.6266 40.2315 28.9522 40.901 28.2717C43.5434 25.592 45.8001 22.6964 47.8618 19.5366C48.9765 17.8333 49.9679 15.7996 51.4621 14.3662ZM47.4391 23.3071C47.1689 23.8186 46.881 24.3 46.5934 24.7334C45.3173 26.5933 42.7857 28.4972 40.8705 29.6546C40.3932 29.944 39.8981 30.2334 39.3733 30.5048C40.2146 29.9743 41.0088 29.3538 41.7909 28.7754C43.8209 27.257 45.8583 25.42 47.4391 23.3071ZM47.7749 16.5846C47.1648 17.271 46.5784 17.9814 46.0335 18.7158C44.6624 20.5398 43.5577 22.6278 42.3764 24.5777C41.6388 25.7934 40.8776 26.967 40.0273 28.1047C40.3635 27.4789 40.6997 26.8531 41.0714 26.2452C41.9827 24.7828 43.0068 23.3803 43.8706 21.8878C44.4585 20.8768 44.8624 19.7698 45.4563 18.7468C45.6955 18.4879 45.9347 18.235 46.2036 17.982C46.7235 17.4942 47.2494 17.0184 47.7749 16.5846ZM50.0018 14.9517C49.7448 15.1866 49.4938 15.4275 49.2844 15.6744C48.6324 16.4149 48.0751 17.2636 47.4823 18.0582C45.6982 20.3998 44.0802 22.8434 42.4562 25.2991C41.815 26.2621 41.1324 27.1711 40.4083 28.05C41.1929 26.9666 41.9061 25.8712 42.6017 24.7217C43.783 22.7778 44.8877 20.7017 46.2469 18.8778C47.0971 17.7401 48.0364 16.6504 49.0348 15.6207C49.3393 15.3917 49.6676 15.1687 50.0018 14.9517ZM51.0095 14.4631C49.6641 15.8902 48.709 17.7917 47.6662 19.3926C45.6165 22.5344 43.3717 25.4179 40.7294 28.0796C40.6517 28.1579 40.574 28.2362 40.5082 28.3144C41.2741 27.3993 41.9925 26.4542 42.6637 25.4431C44.2936 22.9934 45.9056 20.5558 47.6778 18.2142C48.2706 17.4316 48.816 16.583 49.468 15.8545C49.9046 15.3607 50.4364 14.8849 51.0095 14.4631ZM49.0081 19.9256C48.7554 20.5032 48.5087 21.0928 48.2501 21.6584C46.601 24.3847 44.1151 26.7034 41.6493 28.5471C41.4761 28.6736 41.3149 28.8002 41.1417 28.9327C41.2373 28.8544 41.3209 28.7881 41.4105 28.7098C44.3668 26.3122 46.9933 23.2236 49.0081 19.9256ZM44.7024 19.6438C44.354 20.3539 44.047 21.0818 43.6571 21.7619C42.9491 23.0076 42.1106 24.1813 41.3374 25.379C42.3467 23.3272 43.3257 21.3896 44.7024 19.6438ZM52.3574 13.7576C51.8725 14.3776 51.4114 15.0036 51.0037 15.6656L50.9978 15.6536C50.9325 15.6237 50.8551 15.6418 50.825 15.714C50.2304 16.8874 49.7842 18.1146 49.1125 19.2521C47.5948 21.8458 45.6792 24.326 43.5154 26.4638C45.3926 24.5369 47.039 22.3818 48.4303 20.0708C49.6597 18.0367 50.4979 15.6845 52.1602 13.9382C52.2259 13.884 52.2916 13.8238 52.3574 13.7576ZM67.3936 36.4549C66.9358 36.3955 66.4781 36.324 66.0445 36.1864C65.4267 35.995 64.8751 35.6472 64.2512 35.4978C60.579 34.6198 56.8833 33.6877 53.3019 32.5029C52.2209 32.1499 51.164 31.7247 50.1072 31.2934C49.9647 31.2335 49.8104 31.1677 49.6679 31.1017C50.3925 31.3531 51.1594 31.4541 51.8902 31.6394C53.441 32.0217 54.9679 32.4341 56.5187 32.8165C59.0737 33.4498 61.6703 34.083 64.1526 34.9689C65.1147 35.3161 66.0402 35.8317 66.9721 36.2571C67.1265 36.329 67.263 36.3889 67.3936 36.4549ZM64.813 34.9558C64.623 34.878 64.445 34.8001 64.2549 34.7343C61.7666 33.8423 59.1581 33.2091 56.5913 32.5699C55.0405 32.1875 53.5136 31.7751 51.9628 31.3927C51.5944 31.2971 51.2021 31.2316 50.8218 31.142C51.5828 31.249 52.3438 31.332 53.0927 31.4751C54.9886 31.8389 56.8481 32.365 58.738 32.7468C60.307 33.063 62.1799 33.2645 63.6156 34.0799C64.0128 34.3679 64.404 34.6559 64.813 34.9558ZM61.1282 36.6872C58.4648 36.3367 55.947 35.4148 53.6396 34.0235C52.7676 33.4958 51.8663 32.89 50.9233 32.2962C51.4576 32.5359 51.9858 32.7756 52.5081 33.0273C54.158 33.8423 55.8139 34.6334 57.5118 35.3582C58.7051 35.8674 59.9045 36.3404 61.1282 36.6872ZM66.9643 36.654L66.8095 36.6722C66.399 36.6849 65.9826 36.6735 65.5723 36.6381C64.6209 36.5434 63.7539 36.2382 62.8448 36.0051C61.6744 35.7003 60.4739 35.4497 59.3157 35.0788C58.3475 34.7616 57.4215 34.3422 56.4534 34.0131C54.8676 33.4865 53.306 32.8877 51.7802 32.2408C52.2553 32.4204 52.7304 32.588 53.2174 32.7496C56.8107 33.9404 60.5184 34.8664 64.1905 35.7565C64.8084 35.9118 65.36 36.2537 65.9659 36.4391C66.2985 36.5468 66.6432 36.6124 66.9821 36.6599L66.9642 36.66L66.9643 36.654ZM62.4653 33.3001C61.2655 32.9052 59.9576 32.7269 58.7928 32.4942C56.9028 32.1124 55.0374 31.5863 53.1474 31.2225C52.9097 31.1748 52.6719 31.1391 52.4223 31.0974C55.2711 31.2492 58.0544 31.3951 60.8096 32.461C61.4152 32.6945 61.9552 32.9823 62.4653 33.3001ZM65.0003 36.8254C64.322 36.8565 63.6497 36.8636 62.9716 36.8467C61.117 36.543 59.3594 35.8784 57.6141 35.1235C56.219 34.5185 54.8598 33.8833 53.4947 33.2241C54.4447 33.5954 55.4068 33.9426 56.3808 34.2717C57.3429 34.6009 58.2689 35.0203 59.243 35.3374C60.4013 35.7084 61.6017 35.971 62.7781 36.2638C63.5268 36.449 64.2514 36.6883 65.0003 36.8254ZM76.8995 25.4611C74.7929 25.6087 72.5516 25.3116 70.6992 24.557C69.2624 23.97 67.8203 23.2508 66.3479 22.6459C66.5737 22.6996 66.7934 22.7715 67.0013 22.8493C69.9943 23.9328 73.1708 25.2084 76.3761 25.4318C76.5486 25.4376 76.727 25.4493 76.8995 25.4611ZM77.4074 22.5322C76.5514 22.4013 75.665 22.4087 74.7787 22.3921C73.6009 22.3759 72.3996 22.2816 71.2215 22.3376C70.567 22.3687 69.8886 22.4178 69.2222 22.4369C68.4434 22.3299 67.6527 22.229 66.8739 22.116C66.8858 22.1159 66.9037 22.1159 66.9096 22.1159C68.2303 22.1198 69.5281 21.9194 70.8432 21.8331C72.7594 21.6978 74.7582 21.7127 76.6299 22.1607C76.897 22.2805 77.1522 22.4063 77.4074 22.5322ZM75.0025 21.6161C73.6113 21.456 72.2072 21.4762 70.8326 21.5746C69.6245 21.6607 68.422 21.8369 67.2143 21.8569C69.8154 21.5522 72.358 21.0551 75.0025 21.6161ZM80.0313 24.903C79.7752 24.9695 79.5429 25.03 79.3344 25.0784C78.3642 25.1942 77.3943 25.2438 76.3833 25.1793C73.2434 24.9558 70.144 23.7281 67.2104 22.6505C67.365 22.6683 67.5137 22.6801 67.6743 22.6859C68.3042 22.8292 68.928 22.9905 69.5578 23.1459C71.3938 23.6059 73.2052 24.2464 75.0834 24.5741C76.7121 24.8421 78.383 25.0018 80.0313 24.903ZM81.4432 24.4799L81.4134 24.4919C79.3357 24.8199 77.1948 24.673 75.1322 24.3215C73.2658 24.0058 71.4604 23.3653 69.6244 22.9053C69.3749 22.8455 69.1313 22.7798 68.8818 22.714C68.9888 22.7139 69.09 22.7137 69.1971 22.7015C71.6643 23.0343 74.1256 23.3491 76.5808 23.712C77.3417 23.825 78.1146 23.914 78.8754 24.045C79.7194 24.206 80.5869 24.4091 81.4611 24.4738L81.4432 24.4799ZM80.8737 24.1501C80.2198 24.0549 79.5721 23.9116 78.9242 23.7984C78.1634 23.6553 77.3905 23.5664 76.6237 23.4533C74.6382 23.1559 72.6406 22.9005 70.649 22.6331C70.8513 22.6207 71.0417 22.6144 71.2381 22.6021C72.4103 22.5401 73.6056 22.6344 74.7893 22.6566C75.9909 22.6727 77.2106 22.6407 78.3271 23.0178C78.8018 23.2695 79.2766 23.5093 79.7693 23.7189C80.1315 23.8627 80.4937 24.0184 80.8737 24.1501ZM72.059 13.997C72.041 14.015 72.0291 14.0271 72.0111 14.0451C71.9156 14.1234 71.8081 14.2018 71.7126 14.2741C71.7006 14.2861 71.6946 14.2921 71.6827 14.3042C71.6648 14.3162 71.6469 14.3223 71.635 14.3343C71.7605 14.2018 71.8742 14.0634 71.9879 13.9189C71.9998 13.9369 72.0056 13.9549 72.0174 13.979C72.0352 13.985 72.0411 13.997 72.059 13.997ZM80.6731 6.58199C79.7923 7.88207 78.8879 9.14612 77.7641 10.2722C76.8555 11.1695 75.7218 11.8748 74.6773 12.5919C74.0089 13.0439 73.3107 13.4899 72.6067 13.9119L72.6425 13.8818C73.1561 13.4661 73.6579 13.0324 74.1538 12.5987C74.4763 12.3277 74.8049 12.0506 75.1274 11.7795C76.6744 10.4844 78.197 9.32758 79.5724 7.84634C79.9372 7.44293 80.3081 7.02147 80.6731 6.58199ZM83.1956 0.397185C80.8439 2.01826 78.8291 4.08372 77.1344 6.40721C76.0923 7.85185 75.0618 9.35058 74.0671 10.8312C73.7315 11.3428 73.384 11.8604 73.0009 12.342C73.145 12.0833 73.2772 11.8125 73.4034 11.5417C73.5593 11.289 73.7092 11.0422 73.8651 10.7895C75.0288 8.79749 76.3883 6.91344 77.8247 5.11945C78.6027 4.15623 79.3395 3.10288 80.2774 2.29573C80.8863 1.84984 81.519 1.42797 82.1516 1.01211C82.4976 0.801124 82.8436 0.602166 83.1956 0.397185ZM82.3463 1.34248C80.3562 3.21551 78.7568 5.50277 77.1338 7.754C76.1575 9.12038 75.015 10.4149 73.8965 11.6672C73.7231 11.8599 73.5615 12.0526 73.388 12.2572C73.6934 11.8419 73.9811 11.4086 74.2687 10.9752C75.2575 9.48856 76.2819 7.99585 77.324 6.55121C78.7672 4.59488 80.4415 2.81855 82.3463 1.34248ZM84.1724 0.155142C83.6042 0.781337 83.0894 1.43751 82.545 2.0817C81.127 3.76142 79.6913 5.39307 78.3326 7.11478C77.3929 8.30073 76.4293 9.51677 75.3829 10.6067C74.8269 11.1848 74.265 11.7448 73.6971 12.3109C73.8287 12.1543 73.9663 12.0038 74.0979 11.8473C75.2165 10.5829 76.3649 9.29441 77.3532 7.90397C79.3657 5.07493 81.3725 2.19178 84.1724 0.155142ZM84.924 -0.278944C84.57 0.346912 84.2219 0.984783 83.8026 1.58068C82.3832 3.549 80.709 5.30128 79.1119 7.11956C77.5028 8.9499 75.8105 10.7683 73.9823 12.3946L73.9464 12.4247C74.4904 11.8827 75.0344 11.3347 75.5724 10.7868C76.6248 9.68481 77.5944 8.46274 78.54 7.27679C79.8988 5.54907 81.3344 3.92944 82.7524 2.24973C83.4525 1.40086 84.1409 0.509927 84.924 -0.278944ZM78.8441 3.44637C78.4312 3.94606 78.042 4.46976 77.6351 4.96944C76.456 6.44436 75.3242 7.97933 74.3171 9.58023C74.6358 8.87627 74.9783 8.16626 75.3922 7.46816C76.3159 5.89744 77.506 4.59687 78.8441 3.44637ZM82.5555 3.59683C82.4295 3.81949 82.3035 4.04215 82.1834 4.2648C81.3093 5.42057 80.3457 6.63662 79.3888 7.67227C78.5158 8.60559 77.5838 9.41874 76.6282 10.2079C77.5489 9.26247 78.4341 8.28104 79.3074 7.28761C80.3782 6.05336 81.5024 4.84909 82.5555 3.59683ZM98.1663 13.2522C96.8933 13.2422 95.608 13.3224 94.3282 13.4807C92.3936 13.7183 90.5063 14.0339 88.5712 14.3977C87.7435 14.5554 86.8921 14.707 86.047 14.7685C87.2682 14.4359 88.4662 13.953 89.7645 13.6563C92.4863 13.0087 95.3663 12.8598 98.1663 13.2522ZM99.6914 16.5025C96.7977 17.0242 93.7397 17.0711 90.9344 16.5344C89.5912 16.278 88.2903 15.8832 86.9775 15.4885C88.214 15.6789 89.4506 15.8333 90.6873 15.9817C93.7135 16.3497 96.6923 16.6816 99.6914 16.5025ZM101.877 16C101.865 16.0001 101.859 16.0121 101.847 16.0121C98.1145 16.5892 94.4579 16.1801 90.7182 15.7291C89.5291 15.5867 88.352 15.4322 87.1631 15.2537C87.294 15.2415 87.4309 15.2232 87.556 15.205C88.6678 15.3295 89.7913 15.5081 90.8973 15.6146C93.6028 15.8688 96.3032 15.9547 99.0275 16.0166C100.057 16.039 100.973 16.0616 101.877 16ZM100.371 13.6696C97.9442 13.6614 95.516 13.8877 93.1466 14.2522C91.8607 14.4466 90.4211 14.4369 89.135 14.6614C88.8195 14.722 88.5158 14.7766 88.2181 14.8372C88.0098 14.8375 87.8016 14.8379 87.5935 14.8262C87.9388 14.7655 88.2663 14.7109 88.6116 14.6382C90.5468 14.2804 92.4341 13.9587 94.3567 13.7272C96.2496 13.4897 98.1357 13.4326 100.039 13.592C100.116 13.6099 100.181 13.6218 100.247 13.6397C100.288 13.6517 100.336 13.6636 100.371 13.6696ZM106.501 14.4716C102.993 15.2587 99.3105 15.3006 95.7594 15.2281C93.8083 15.1951 91.8869 15.1681 89.9422 15.0569C90.0552 15.0567 90.1623 15.0446 90.2754 15.0444C92.0661 15.0115 93.8273 14.9546 95.6185 14.8435C98.8616 14.634 103.205 14.5429 106.501 14.4716ZM104.241 14.2647C101.373 14.3354 98.1487 14.4307 95.5959 14.585C93.8166 14.6961 92.0555 14.753 90.2707 14.7858C90.1933 14.786 90.122 14.7861 90.0446 14.7862C91.0803 14.6763 92.1869 14.6505 93.187 14.4926C96.0267 14.0673 98.9785 13.8281 101.881 13.9618C102.654 14.0929 103.456 14.1878 104.241 14.2647ZM105.076 15.0029C104.427 15.2144 103.778 15.4078 103.128 15.6193C101.765 15.8078 100.528 15.7857 99.0347 15.752C96.3699 15.6901 93.717 15.6161 91.071 15.3678C92.6293 15.4315 94.1818 15.4591 95.7522 15.4866C98.8215 15.5419 102.01 15.5188 105.076 15.0029Z" fill="url(#paint0_linear_109_165)"/>
</g>
<defs>
<linearGradient id="paint0_linear_109_165" x1="3.28429" y1="33.1125" x2="94.2375" y2="19.0202" gradientUnits="userSpaceOnUse">
<stop stop-color="#E0B143"/>
<stop offset="1" stop-color="#37ABB8"/>
</linearGradient>
<clipPath id="clip0_109_165">
<rect width="110" height="50" fill="white"/>
</clipPath>
</defs>
</svg>
