<svg width="110" height="50" viewBox="0 0 110 50" fill="none" xmlns="http://www.w3.org/2000/svg">
<g clip-path="url(#clip0_109_167)">
<path fill-rule="evenodd" clip-rule="evenodd" d="M82.7742 17.7498C82.8096 17.7979 82.869 17.8278 82.9344 17.8338C83.1543 17.8635 83.3744 17.8691 83.5885 17.8808C86.031 18.4061 88.3821 19.3583 90.8308 19.8234C94.7595 20.5688 99.1693 20.2131 102.971 18.9925C104.246 18.5877 105.526 18.2249 106.772 17.7179C106.975 17.6394 107.338 17.5426 107.648 17.4279C107.904 17.3313 108.125 17.2047 108.251 17.0722C108.328 16.9879 108.317 16.9098 108.317 16.8497C108.306 16.7715 108.27 16.7175 108.193 16.6635C108.163 16.6455 108.116 16.6275 108.051 16.6276C108.009 16.6277 107.943 16.6398 107.908 16.6399C107.67 16.6463 107.432 16.6587 107.194 16.6711C106.611 16.702 106.022 16.6909 105.445 16.6438C103.762 16.4901 102.02 16.3305 100.374 15.9303C96.8859 15.088 93.1439 15.124 89.636 15.9413C88.0221 16.3166 86.5672 16.9983 85.0014 17.2653L84.9895 17.2653C83.1644 17.0097 81.3151 16.8382 79.4593 16.7931C77.7164 16.7598 75.973 16.8347 74.2407 17.0899C73.6097 17.1751 72.9904 17.2963 72.3711 17.4296C73.2599 16.9171 74.1192 16.3746 74.9429 15.8142C76.0113 15.079 77.1748 14.3677 78.1073 13.4403C79.6256 11.9287 80.7227 10.1834 81.9268 8.43787C82.4361 7.69753 82.8208 6.8672 83.3004 6.10286C83.828 5.26629 84.4386 4.46567 84.9662 3.61708C85.29 3.09949 85.6374 2.5939 85.9731 2.08231C86.0809 1.92581 86.1708 1.78137 86.2905 1.63688C86.3384 1.57668 86.4518 1.50435 86.4997 1.44415C86.5475 1.38395 86.5775 1.32979 86.5837 1.2877C86.602 1.19748 86.5844 1.13137 86.5371 1.07733C86.5016 1.02929 86.4425 0.96926 86.3295 0.963426C86.1511 0.945671 85.9306 1.02418 85.698 1.1448C85.4415 1.2895 85.1609 1.50038 84.9938 1.60887C83.9558 2.20575 82.8764 2.74256 81.862 3.3875C79.1409 5.13542 76.6088 7.1536 74.9293 10.0062C73.9216 11.7153 73.324 13.5019 72.4479 15.0666C71.6618 16.4747 70.6446 17.6909 68.8801 18.4512C66.383 19.3811 64.1402 20.6352 61.8548 22.0638C57.7615 24.6316 53.5463 27.7888 47.4291 30.6183C45.2826 31.6137 43.0956 32.4048 40.8975 33.0096C40.9631 32.9674 41.0288 32.9312 41.1003 32.895C43.0692 31.7074 45.6724 29.7493 46.9904 27.8292C48.5362 25.554 49.7132 22.0469 50.9925 19.5317C51.509 18.5088 52.1617 17.6239 52.874 16.7329C53.0296 16.5403 53.2925 16.2873 53.5139 16.0284C53.6874 15.8237 53.8193 15.6131 53.8797 15.4206C53.922 15.2943 53.8807 15.2162 53.8512 15.1681C53.804 15.09 53.7269 15.0421 53.6019 15.0543C53.5662 15.0543 53.5066 15.0725 53.4469 15.1147C53.3813 15.1629 53.2677 15.2713 53.2021 15.3074C53.0111 15.434 52.832 15.5606 52.6352 15.6751C52.0743 16.0307 51.4602 16.3143 50.8816 16.6339C50.6549 16.7605 50.4222 16.8931 50.2015 17.0197C50.1541 16.9897 50.0886 16.9898 50.0468 17.038C49.9691 17.1163 49.8914 17.1826 49.8196 17.2608C48.9723 17.8033 48.1783 18.3817 47.4018 19.0263C47.3543 18.9963 47.2889 18.9964 47.253 19.0446C46.9004 19.3758 46.5537 19.7131 46.2367 20.0683C46.1112 20.1827 45.9798 20.3092 45.8542 20.4357C43.4038 22.7784 42.0579 25.5583 40.5859 28.5608C40.0752 29.6018 39.6236 30.7208 39.0121 31.7018C38.4186 32.6467 37.683 33.4535 36.5861 33.9182C36.4907 33.9605 36.3835 33.9967 36.2881 34.0269C30.9598 34.8651 25.5172 34.7294 20.0484 33.8783C24.4938 33.5405 29.3142 30.7071 32.51 27.9844C32.5758 27.9242 32.6415 27.8699 32.7132 27.8097C33.9915 26.7194 35.0564 25.4852 36.0267 24.1068C36.0926 24.0165 36.2301 23.884 36.3319 23.7395C36.4277 23.6131 36.5116 23.4867 36.5419 23.3725C36.5722 23.2642 36.5726 23.168 36.5314 23.0839C36.4961 22.9998 36.4252 22.9097 36.3064 22.8558C34.7511 22.1728 32.4411 22.5552 30.081 23.4608C26.5885 24.7951 22.9715 27.2599 21.4881 28.9277C20.8003 29.6984 20.2893 30.7995 19.666 31.7444C19.1567 32.5148 18.5764 33.1831 17.7186 33.431C12.9352 32.2902 5.53701 29.3678 2.47538 26.4807C2.32141 26.3366 2.08339 26.349 1.93989 26.4995C1.82625 26.626 1.80756 26.8004 1.87825 26.9446C1.86031 26.9626 1.86017 26.9927 1.84818 27.0108C1.81858 26.9807 1.78893 26.9627 1.76528 26.9327C1.70602 26.8847 1.63457 26.8969 1.58675 26.945C1.53887 27.0052 1.55042 27.0774 1.59775 27.1314C1.95906 27.4555 2.34438 27.7375 2.74162 28.0134C2.78312 28.0434 2.83666 28.0433 2.8725 28.0132C3.13921 28.2172 3.41191 28.4152 3.69066 28.5891C3.74998 28.6251 3.83335 28.6069 3.86338 28.5468C3.86341 28.5407 3.87531 28.5407 3.87537 28.5287C5.54765 29.6263 7.67223 30.6872 9.87481 31.6096C9.90427 31.6697 9.95758 31.7177 10.0289 31.7356C10.3734 31.8433 10.706 31.945 11.0267 32.0708C11.1098 32.1067 11.2048 32.1366 11.2939 32.1786C11.7688 32.3702 12.2378 32.5799 12.6887 32.8197C12.9129 33.2222 13.0355 33.6849 13.1285 34.1477C13.2331 34.6646 13.3138 35.1876 13.4721 35.6804C14.7383 39.5624 16.2646 42.5542 19.4583 45.1886C19.8257 45.4887 22.0964 47.0844 23.1713 47.4555C23.4089 47.5453 23.611 47.569 23.7301 47.5448C23.8432 47.5266 23.9209 47.4663 23.9807 47.3881C24.0765 47.2616 24.125 47.0812 24.1261 46.8407C24.1275 46.5701 24.0518 46.2155 23.9407 45.8129C23.5076 44.3525 22.4348 42.2919 22.1694 41.8354C20.2518 38.5556 17.7326 35.4392 14.5721 33.3218L14.5899 33.3337C15.2849 33.5551 15.9858 33.7644 16.6988 33.9497C17.281 34.1051 17.8693 34.2485 18.4576 34.3678C18.6478 34.4096 18.838 34.4453 19.0401 34.4811C19.1352 34.499 19.2303 34.5109 19.3373 34.5287C19.4502 34.5466 19.5632 34.5705 19.682 34.5883C20.0446 34.6479 20.4073 34.7014 20.758 34.7489C21.5844 34.8619 22.4227 34.9688 23.261 35.0516C23.6713 35.087 24.0816 35.1285 24.48 35.1639C24.5929 35.1938 24.7058 35.2237 24.8306 35.2476C24.8305 35.2656 24.8424 35.2776 24.8482 35.2956C27.8442 41.9166 33.3571 47.2049 40.6267 48.4259C41.0428 48.4914 43.7529 49.0283 45.0372 49.1585C45.4178 49.194 45.6855 49.1875 45.7928 49.1453C45.9239 49.097 45.9838 49.0127 46.0021 48.9165C46.0203 48.8383 46.0207 48.7541 45.9677 48.658C45.9323 48.5919 45.8613 48.5018 45.7785 48.4178C45.6956 48.3337 45.5889 48.2437 45.5417 48.1777C45.2107 47.7273 44.8618 47.3009 44.5845 46.8204C43.7174 45.3006 42.825 44.0694 41.5578 42.869C36.915 38.4872 27.0314 35.3102 27.0314 35.3102C32.7592 35.5116 38.42 34.8172 43.9022 32.9146C43.9141 32.9146 43.9141 32.9146 43.92 32.9146C45.6214 32.9059 47.278 33.5526 48.8622 34.4219C50.476 35.3032 52.0234 36.401 53.447 37.2646C55.9501 38.7818 58.7057 39.7514 61.6191 40.0655C63.2364 40.2373 64.8368 40.1927 66.4616 40.0398C66.9497 39.9909 67.4259 39.93 67.908 39.8752C68.1104 39.8568 68.3068 39.8264 68.5092 39.796C68.5211 39.796 68.6638 39.8078 68.7174 39.8077C68.7948 39.7956 68.8425 39.7775 68.8783 39.7474C68.938 39.7052 68.9739 39.651 68.9861 39.5909C69.0043 39.5307 69.0046 39.4586 68.9575 39.3685C68.8925 39.2603 68.7562 39.1583 68.5782 39.0684C68.2932 38.9426 67.8653 38.8591 67.6873 38.7692C66.8622 38.3857 66.008 37.894 65.255 37.3661C63.8678 36.3763 62.6827 35.3981 61.0795 34.7754C57.3921 33.3562 53.6434 33.5365 49.7783 33.1939C48.256 33.0641 46.7945 32.6695 45.2908 32.3893C46.149 32.0633 46.9955 31.6952 47.8481 31.3091C52.2721 29.2578 55.7094 27.0398 58.8246 24.9906C58.8543 24.9906 58.89 24.9905 58.9198 24.9785C60.9868 24.416 62.9484 24.7376 64.8608 25.3899C66.8088 26.0542 68.6958 27.0493 70.5719 27.816C73.2199 28.9 76.6397 29.057 79.4032 28.3912C80.243 28.1855 81.8809 27.7921 82.6328 27.3099C82.6983 27.2917 82.7578 27.2796 82.8234 27.2615C82.8889 27.2433 82.9309 27.1771 82.9193 27.105C82.9018 27.0389 82.8365 26.9969 82.7651 27.009C82.7535 26.9489 82.718 26.9009 82.6588 26.8529C82.6291 26.8349 82.5817 26.8049 82.5044 26.793C82.439 26.7811 82.3021 26.7933 82.2368 26.7754C82.0347 26.7336 81.8447 26.6678 81.6545 26.62C81.0842 26.4646 80.5617 26.2489 80.0215 26.0153C78.3889 25.3265 76.9543 24.2765 75.1953 23.8945C71.9803 23.2082 68.9245 24.0367 65.7228 24.2763C63.8542 24.4115 62.0237 24.0416 60.1614 24.1047C60.8955 23.6225 61.6235 23.1464 62.3395 22.7064C68.4318 18.8848 74.2502 16.3504 85.7111 18.13L82.7742 17.7498ZM13.6846 33.5576L13.6786 33.5697C13.6668 33.5517 13.6668 33.5396 13.661 33.5216L13.6846 33.5576ZM20.5997 45.3552C20.2024 45.0792 19.8883 44.8452 19.7638 44.7613C16.653 42.1929 15.174 39.2671 13.937 35.4933C13.8901 35.349 13.8552 35.1928 13.8142 35.0425C13.9083 35.2708 14.0143 35.5052 14.1143 35.7275C14.4615 36.5145 14.7908 37.3077 15.2095 38.0646C16.4006 40.2512 17.7579 42.5218 19.4624 44.3349C19.8116 44.7071 20.2205 45.0251 20.5997 45.3552ZM22.1433 45.9901C21.5095 45.4199 20.9237 44.7895 20.3735 44.141C19.0839 42.6399 17.9972 41.0123 16.9046 39.3606C15.8594 37.775 14.6719 36.0693 13.9429 34.2607C14.2082 34.7593 14.545 35.2398 14.8223 35.7203C15.2942 36.5373 15.7364 37.3663 16.268 38.1531C16.9591 39.1741 17.7635 40.1348 18.5084 41.1077C19.3951 42.2727 20.3235 43.4196 21.1923 44.5967C21.5054 45.0531 21.7945 45.5517 22.1433 45.9901ZM14.3319 33.7851C17.3856 35.8606 19.8219 38.893 21.7101 42.0826C21.9638 42.5151 23.013 44.5156 23.4345 45.9399C23.5399 46.2765 23.6039 46.583 23.6028 46.8175C23.6027 46.8355 23.6026 46.8535 23.6025 46.8776C23.5265 46.6011 23.385 46.3368 23.2911 46.0604C23.1855 45.7539 23.1336 45.4173 23.0102 45.1049C22.6633 44.2577 22.084 43.489 21.6119 42.7081C21.2459 42.1134 20.9218 41.4887 20.5259 40.9181C19.8524 39.9572 19.0654 39.0806 18.3083 38.1859C17.4684 37.1952 16.6404 36.1864 15.7647 35.2138C15.2971 34.7215 14.8055 34.2653 14.3319 33.7851ZM23.3113 46.8119C23.252 46.7639 23.1988 46.7039 23.1514 46.6559C22.8682 46.1813 22.6446 45.6706 22.3613 45.2021C22.078 44.7275 21.7351 44.2952 21.4339 43.8327C21.1032 43.3342 20.8083 42.8056 20.4716 42.3131C19.7153 41.238 18.8458 40.2233 18.0477 39.1784C16.8537 37.599 15.6955 35.9835 14.5611 34.3619C14.9046 34.6981 15.2539 35.0342 15.5734 35.3885C16.4433 36.3491 17.2653 37.3579 18.1112 38.3486C18.8565 39.2312 19.6435 40.0958 20.3051 41.0627C20.701 41.6333 21.0251 42.2581 21.3792 42.8407C21.8515 43.5976 22.4189 44.3602 22.754 45.1955C22.8774 45.4959 22.9353 45.8205 23.035 46.1269C23.1171 46.3733 23.2291 46.5896 23.3113 46.8119ZM22.5061 46.0135C22.086 45.5392 21.7616 44.9565 21.3893 44.4461C20.5206 43.263 19.5921 42.1161 18.7054 40.9571C17.9546 39.9842 17.1561 39.0355 16.4709 38.0145C15.9512 37.2337 15.509 36.4167 15.043 35.5997C14.9014 35.3474 14.742 35.1072 14.5885 34.8609C15.646 36.3804 16.7333 37.8818 17.8446 39.3531C18.6307 40.404 19.4885 41.4007 20.2447 42.4878C20.5874 42.9803 20.8764 43.4969 21.2071 44.0014C21.5083 44.4519 21.8512 44.8842 22.1226 45.3588C22.2644 45.563 22.3822 45.7913 22.5061 46.0135ZM21.7448 45.9787C21.4485 45.7447 21.1582 45.5046 20.8797 45.2585C20.4591 44.8924 20.0146 44.5564 19.6358 44.1542C17.9491 42.3531 16.5976 40.1066 15.4183 37.938C15.1354 37.4093 14.8881 36.8686 14.6468 36.3279C15.278 37.4332 15.9986 38.5022 16.666 39.5113C17.7645 41.163 18.869 42.8026 20.1586 44.3097C20.6674 44.8921 21.1881 45.4565 21.7448 45.9787ZM35.3921 23.717C34.3294 24.5063 33.0712 25.1276 32.0206 25.8688C28.0451 28.6648 23.8211 31.1787 19.3091 32.9776C22.6513 30.7477 26.2419 28.7939 29.6843 26.7503C31.5815 25.6229 33.3009 24.3576 35.3921 23.717ZM32.6808 27.1123C32.5852 27.1966 32.4777 27.293 32.3761 27.3833C32.3104 27.4436 32.2447 27.4978 32.173 27.558C28.9413 30.3168 23.9957 33.2167 19.5214 33.356C21.088 32.9387 22.5607 32.2509 24.0805 31.6653C26.9891 30.5123 30.1072 29.1185 32.6808 27.1123ZM35.9415 23.2712C35.9236 23.2893 35.9117 23.3013 35.8937 23.3194C33.5233 23.8943 31.6486 25.2922 29.5605 26.534C26.476 28.3667 23.279 30.1154 20.2534 32.0682C23.6936 29.2609 27.3717 26.4413 31.4547 24.7814C32.9211 24.1658 34.364 23.4901 35.9415 23.2712ZM35.4085 24.0236C32.6424 27.6775 28.105 29.8071 23.9866 31.4069C22.7469 31.8899 21.5366 32.4389 20.2794 32.8558C24.4879 31.0754 28.4375 28.7003 32.1743 26.0729C33.183 25.3679 34.3757 24.7708 35.4085 24.0236ZM33.7179 23.0102C32.8127 23.216 31.8948 23.5902 31.126 23.862C28.7604 24.6654 24.5001 27.3176 22.6295 29.1063C21.9481 29.7627 21.3024 30.4251 20.633 31.0755C21.017 30.4075 21.389 29.7456 21.8495 29.2338C23.3029 27.6141 26.8482 25.2096 30.2513 23.9055C31.4612 23.4466 32.6526 23.1141 33.7179 23.0102ZM35.2224 23.1401C33.8884 23.4308 32.6304 24.01 31.3488 24.5351C27.4923 26.1104 23.9878 28.6953 20.7209 31.352C21.4202 30.6775 22.0898 29.979 22.7951 29.3044C24.6418 27.5399 28.8485 24.9118 31.1962 24.1204C31.8755 23.8849 32.6444 23.571 33.4367 23.3533C34.0384 23.178 34.6516 23.0808 35.2224 23.1401ZM25.525 35.5892L25.5131 35.5892L25.5013 35.5591L25.525 35.5892ZM39.4348 47.6342C38.8643 47.5028 38.3119 47.3353 37.7596 47.1438C34.6441 45.5374 31.4651 42.3197 29.2745 40.1527C27.901 38.784 26.5379 37.722 25.7613 35.9195C28.0171 39.3731 31.54 41.6041 34.6806 44.1485C36.2448 45.4447 37.696 46.7591 39.4348 47.6342ZM42.9057 48.2961C41.8715 48.1113 40.8908 47.9265 40.659 47.8848L40.6471 47.8848C38.4024 47.0767 36.7087 45.48 34.8422 43.9558C31.9801 41.6215 28.7896 39.5643 26.5493 36.5916C27.7334 37.7742 28.9352 38.9688 30.2271 40.0069C32.6152 41.9271 35.3026 43.456 37.8764 45.1294C39.7325 46.335 41.1071 47.4872 42.9057 48.2961ZM44.1013 47.0917C41.714 45.0031 38.7699 43.643 36.0232 42.066C32.701 40.1653 29.63 37.9937 26.5655 35.7078C26.6783 35.7377 26.7912 35.7735 26.9159 35.8154C27.2001 36.1036 27.5498 36.3736 27.9412 36.6255C28.9494 37.2672 30.1723 37.7944 30.9136 38.2742C33.3153 39.8397 35.6935 41.3571 38.2332 42.6938C40.0371 43.6349 41.8063 44.3657 43.2632 45.7282C43.5467 46.1486 43.8182 46.5931 44.0837 47.0556C44.0895 47.0677 44.0895 47.0797 44.1013 47.0917ZM44.8575 48.1848C39.0379 44.815 33.0682 41.74 28.0335 37.2146C27.5952 36.8184 27.1209 36.4765 26.6706 36.1104C29.6581 38.3303 32.664 40.4359 35.9031 42.3007C38.9702 44.0575 42.2647 45.5434 44.7747 48.0767C44.7984 48.1067 44.8279 48.1487 44.8575 48.1848ZM36.2217 46.545C32.387 44.8255 29.2366 41.8483 26.9638 38.2264C27.6087 38.9589 28.3491 39.613 29.0951 40.3514C30.966 42.2003 33.5531 44.8116 36.2217 46.545ZM45.0993 48.6293C44.9268 48.6115 44.7306 48.5938 44.4987 48.5641C44.3858 48.5463 44.2728 48.5344 44.1539 48.5166C41.7484 47.7387 40.2321 46.3763 38.0023 44.9248C35.4404 43.2634 32.7648 41.7345 30.3767 39.8203C29.2211 38.8902 28.1376 37.8277 27.066 36.7712C27.3327 36.9812 27.5993 37.1912 27.854 37.4253C33.179 42.1968 39.5528 45.3613 45.6865 48.9771L45.0993 48.6293ZM42.6427 44.8754C41.3327 43.8854 39.8486 43.2444 38.3295 42.4532C35.7957 41.1284 33.4235 39.611 31.0337 38.0516C30.2924 37.5718 29.0694 37.0446 28.0612 36.4028C27.8833 36.2889 27.7113 36.1749 27.5513 36.0489C29.2728 36.8158 30.8922 37.7752 32.5657 38.6324C35.9008 40.3106 39.2005 41.9468 42.1341 44.2509C42.3116 44.455 42.4831 44.6652 42.6427 44.8754ZM41.0094 43.0863C38.4008 41.2506 35.558 39.8482 32.7036 38.3916C31.5049 37.7803 30.3303 37.1147 29.1256 36.4974C33.4553 37.9636 37.7166 40.0371 41.0094 43.0863ZM51.4621 17.144C50.1095 18.8236 49.3202 20.9052 48.2108 22.7347C46.1598 26.135 43.5632 29.1934 40.4756 31.6875C39.8844 32.1574 39.3164 32.7475 38.7072 33.2415C38.6714 33.2596 38.6415 33.2897 38.5998 33.3078C38.6954 33.2235 38.7791 33.1332 38.8747 33.0488C39.5738 32.4044 40.2315 31.73 40.901 31.0495C43.5434 28.3698 45.8001 25.4742 47.8618 22.3144C48.9765 20.6111 49.9679 18.5773 51.4621 17.144ZM47.4391 26.0849C47.1689 26.5964 46.881 27.0778 46.5934 27.5112C45.3173 29.371 42.7857 31.275 40.8705 32.4324C40.3932 32.7218 39.8981 33.0111 39.3733 33.2825C40.2146 32.7521 41.0088 32.1316 41.7909 31.5531C43.8209 30.0348 45.8583 28.1978 47.4391 26.0849ZM47.7749 19.3624C47.1648 20.0488 46.5784 20.7592 46.0335 21.4936C44.6624 23.3175 43.5577 25.4056 42.3764 27.3555C41.6388 28.5712 40.8776 29.7448 40.0273 30.8825C40.3635 30.2567 40.6997 29.6309 41.0714 29.023C41.9827 27.5605 43.0068 26.158 43.8706 24.6656C44.4585 23.6545 44.8624 22.5476 45.4563 21.5246C45.6955 21.2656 45.9347 21.0127 46.2036 20.7598C46.7235 20.272 47.2494 19.7961 47.7749 19.3624ZM50.0018 17.7295C49.7448 17.9644 49.4938 18.2053 49.2844 18.4521C48.6324 19.1927 48.0751 20.0413 47.4823 20.8359C45.6982 23.1776 44.0802 25.6212 42.4562 28.0769C41.815 29.0399 41.1324 29.9488 40.4083 30.8278C41.1929 29.7443 41.9061 28.6489 42.6017 27.4994C43.783 25.5556 44.8877 23.4795 46.2469 21.6556C47.0971 20.5179 48.0364 19.4281 49.0348 18.3984C49.3393 18.1695 49.6676 17.9465 50.0018 17.7295ZM51.0095 17.2409C49.6641 18.668 48.709 20.5694 47.6662 22.1704C45.6165 25.3122 43.3717 28.1957 40.7294 30.8574C40.6517 30.9356 40.574 31.0139 40.5082 31.0922C41.2741 30.1771 41.9925 29.232 42.6637 28.2208C44.2936 25.7712 45.9056 23.3336 47.6778 20.9919C48.2706 20.2094 48.816 19.3608 49.468 18.6322C49.9046 18.1385 50.4364 17.6627 51.0095 17.2409ZM49.0081 22.7034C48.7554 23.281 48.5087 23.8706 48.2501 24.4362C46.601 27.1624 44.1151 29.4812 41.6493 31.3249C41.4761 31.4514 41.3149 31.5779 41.1417 31.7105C41.2373 31.6322 41.3209 31.5659 41.4105 31.4876C44.3668 29.09 46.9933 26.0014 49.0081 22.7034ZM44.7024 22.4216C44.354 23.1316 44.047 23.8596 43.6571 24.5396C42.9491 25.7853 42.1106 26.9591 41.3374 28.1568C42.3467 26.105 43.3257 24.1674 44.7024 22.4216ZM52.3574 16.5353C51.8725 17.1554 51.4114 17.7814 51.0037 18.4434L50.9978 18.4314C50.9325 18.4014 50.8551 18.4196 50.825 18.4918C50.2304 19.6652 49.7842 20.8924 49.1125 22.0298C47.5948 24.6236 45.6792 27.1038 43.5154 29.2416C45.3926 27.3147 47.039 25.1596 48.4303 22.8486C49.6597 20.8144 50.4979 18.4623 52.1602 16.716C52.2259 16.6618 52.2916 16.6016 52.3574 16.5353ZM67.3936 39.2326C66.9358 39.1732 66.4781 39.1018 66.0445 38.9642C65.4267 38.7728 64.8751 38.4249 64.2512 38.2756C60.579 37.3976 56.8833 36.4655 53.3019 35.2807C52.2209 34.9277 51.164 34.5024 50.1072 34.0712C49.9647 34.0113 49.8104 33.9454 49.6679 33.8795C50.3925 34.1309 51.1594 34.2319 51.8902 34.4171C53.441 34.7995 54.9679 35.2119 56.5187 35.5943C59.0737 36.2275 61.6703 36.8608 64.1526 37.7467C65.1147 38.0939 66.0402 38.6095 66.9721 39.0349C67.1265 39.1068 67.263 39.1667 67.3936 39.2326ZM64.813 37.7336C64.623 37.6557 64.445 37.5779 64.2549 37.512C61.7666 36.6201 59.1581 35.9869 56.5913 35.3476C55.0405 34.9653 53.5136 34.5528 51.9628 34.1705C51.5944 34.0749 51.2021 34.0094 50.8218 33.9198C51.5828 34.0268 52.3438 34.1098 53.0927 34.2529C54.9886 34.6166 56.8481 35.1428 58.738 35.5246C60.307 35.8408 62.1799 36.0423 63.6156 36.8577C64.0128 37.1456 64.404 37.4336 64.813 37.7336ZM61.1282 39.465C58.4648 39.1145 55.947 38.1925 53.6396 36.8013C52.7676 36.2736 51.8663 35.6678 50.9233 35.074C51.4576 35.3137 51.9858 35.5533 52.5081 35.805C54.158 36.6201 55.8139 37.4111 57.5118 38.136C58.7051 38.6451 59.9045 39.1182 61.1282 39.465ZM66.9643 39.4317L66.8095 39.45C66.399 39.4627 65.9826 39.4513 65.5723 39.4159C64.6209 39.3212 63.7539 39.0159 62.8448 38.7829C61.6744 38.4781 60.4739 38.2275 59.3157 37.8565C58.3475 37.5394 57.4215 37.12 56.4534 36.7908C54.8676 36.2643 53.306 35.6655 51.7802 35.0185C52.2553 35.1982 52.7304 35.3658 53.2174 35.5273C56.8107 36.7181 60.5184 37.6442 64.1905 38.5342C64.8084 38.6896 65.36 39.0314 65.9659 39.2169C66.2985 39.3246 66.6432 39.3901 66.9821 39.4377L66.9642 39.4377L66.9643 39.4317ZM62.4653 36.0779C61.2655 35.683 59.9576 35.5046 58.7928 35.272C56.9028 34.8902 55.0374 34.364 53.1474 34.0003C52.9097 33.9526 52.6719 33.9169 52.4223 33.8752C55.2711 34.027 58.0544 34.1729 60.8096 35.2387C61.4152 35.4723 61.9552 35.76 62.4653 36.0779ZM65.0003 39.6032C64.322 39.6343 63.6497 39.6414 62.9716 39.6244C61.117 39.3207 59.3594 38.6561 57.6141 37.9013C56.219 37.2963 54.8598 36.6611 53.4947 36.0019C54.4447 36.3731 55.4068 36.7203 56.3808 37.0495C57.3429 37.3787 58.2689 37.7981 59.243 38.1152C60.4013 38.4861 61.6017 38.7488 62.7781 39.0415C63.5268 39.2267 64.2514 39.4661 65.0003 39.6032ZM76.8995 28.2388C74.7929 28.3865 72.5516 28.0894 70.6992 27.3348C69.2624 26.7478 67.8203 26.0286 66.3479 25.4237C66.5737 25.4774 66.7934 25.5492 67.0013 25.6271C69.9943 26.7106 73.1708 27.9862 76.3761 28.2096C76.5486 28.2154 76.727 28.2271 76.8995 28.2388ZM77.4074 25.31C76.5514 25.1791 75.665 25.1865 74.7787 25.1698C73.6009 25.1537 72.3996 25.0594 71.2215 25.1153C70.567 25.1464 69.8886 25.1956 69.2222 25.2147C68.4434 25.1077 67.6527 25.0067 66.8739 24.8937C66.8858 24.8937 66.9037 24.8937 66.9096 24.8937C68.2303 24.8976 69.5281 24.6971 70.8432 24.6109C72.7594 24.4756 74.7582 24.4905 76.6299 24.9384C76.897 25.0583 77.1522 25.1841 77.4074 25.31ZM75.0025 24.3939C73.6113 24.2337 72.2072 24.254 70.8326 24.3524C69.6245 24.4385 68.422 24.6147 67.2143 24.6347C69.8154 24.3299 72.358 23.8329 75.0025 24.3939ZM80.0313 27.6807C79.7752 27.7473 79.5429 27.8078 79.3344 27.8562C78.3642 27.972 77.3943 28.0216 76.3833 27.9571C73.2434 27.7336 70.144 26.5059 67.2104 25.4283C67.365 25.4461 67.5137 25.4579 67.6743 25.4637C68.3042 25.607 68.928 25.7683 69.5578 25.9236C71.3938 26.3837 73.2052 27.0242 75.0834 27.3519C76.7121 27.6199 78.383 27.7796 80.0313 27.6807ZM81.4432 27.2576L81.4134 27.2697C79.3357 27.5977 77.1948 27.4507 75.1322 27.0993C73.2658 26.7836 71.4604 26.1431 69.6244 25.683C69.3749 25.6233 69.1313 25.5575 68.8818 25.4918C68.9888 25.4916 69.09 25.4915 69.1971 25.4793C71.6643 25.8121 74.1256 26.1268 76.5808 26.4897C77.3417 26.6028 78.1146 26.6917 78.8754 26.8228C79.7194 26.9838 80.5869 27.1868 81.4611 27.2516L81.4432 27.2576ZM80.8737 26.9279C80.2198 26.8327 79.5721 26.6894 78.9242 26.5762C78.1634 26.4331 77.3905 26.3441 76.6237 26.2311C74.6382 25.9336 72.6406 25.6783 70.649 25.4109C70.8513 25.3985 71.0417 25.3922 71.2381 25.3799C72.4103 25.3179 73.6056 25.4122 74.7893 25.4344C75.9909 25.4505 77.2106 25.4185 78.3271 25.7955C78.8018 26.0473 79.2766 26.287 79.7693 26.4967C80.1315 26.6404 80.4937 26.7962 80.8737 26.9279ZM72.059 16.7747C72.041 16.7928 72.0291 16.8048 72.0111 16.8229C71.9156 16.9012 71.8081 16.9795 71.7126 17.0518C71.7006 17.0639 71.6946 17.0699 71.6827 17.082C71.6648 17.094 71.6469 17.1 71.635 17.1121C71.7605 16.9796 71.8742 16.8412 71.9879 16.6967C71.9998 16.7147 72.0056 16.7327 72.0174 16.7568C72.0352 16.7627 72.0411 16.7748 72.059 16.7747ZM80.6731 9.35976C79.7923 10.6598 78.8879 11.9239 77.7641 13.05C76.8555 13.9473 75.7218 14.6525 74.6773 15.3697C74.0089 15.8217 73.3107 16.2677 72.6067 16.6897L72.6425 16.6596C73.1561 16.2439 73.6579 15.8102 74.1538 15.3765C74.4763 15.1054 74.8049 14.8284 75.1274 14.5573C76.6744 13.2622 78.197 12.1054 79.5724 10.6241C79.9372 10.2207 80.3081 9.79924 80.6731 9.35976ZM83.1956 3.17496C80.8439 4.79603 78.8291 6.86149 77.1344 9.18498C76.0923 10.6296 75.0618 12.1284 74.0671 13.609C73.7315 14.1206 73.384 14.6382 73.0009 15.1198C73.145 14.861 73.2772 14.5903 73.4034 14.3195C73.5593 14.0667 73.7092 13.82 73.8651 13.5672C75.0288 11.5753 76.3883 9.69121 77.8247 7.89722C78.6027 6.934 79.3395 5.88065 80.2774 5.0735C80.8863 4.62761 81.519 4.20574 82.1516 3.78988C82.4976 3.5789 82.8436 3.37994 83.1956 3.17496ZM82.3463 4.12026C80.3562 5.99328 78.7568 8.28054 77.1338 10.5318C76.1575 11.8981 75.015 13.1926 73.8965 14.445C73.7231 14.6377 73.5615 14.8303 73.388 15.035C73.6934 14.6197 73.9811 14.1863 74.2687 13.753C75.2575 12.2663 76.2819 10.7736 77.324 9.32898C78.7672 7.37265 80.4415 5.59632 82.3463 4.12026ZM84.1724 2.93291C83.6042 3.55911 83.0894 4.21528 82.545 4.85947C81.127 6.53919 79.6913 8.17084 78.3326 9.89256C77.3929 11.0785 76.4293 12.2945 75.3829 13.3844C74.8269 13.9625 74.265 14.5226 73.6971 15.0886C73.8287 14.9321 73.9663 14.7816 74.0979 14.625C75.2165 13.3607 76.3649 12.0722 77.3532 10.6817C79.3657 7.8527 81.3725 4.96955 84.1724 2.93291ZM84.924 2.49883C84.57 3.12468 84.2219 3.76255 83.8026 4.35845C82.3832 6.32677 80.709 8.07905 79.1119 9.89734C77.5028 11.7277 75.8105 13.5461 73.9823 15.1724L73.9464 15.2025C74.4904 14.6605 75.0344 14.1125 75.5724 13.5645C76.6248 12.4626 77.5944 11.2405 78.54 10.0546C79.8988 8.32684 81.3344 6.70722 82.7524 5.0275C83.4525 4.17863 84.1409 3.2877 84.924 2.49883ZM78.8441 6.22414C78.4312 6.72383 78.042 7.24753 77.6351 7.74721C76.456 9.22213 75.3242 10.7571 74.3171 12.358C74.6358 11.654 74.9783 10.944 75.3922 10.2459C76.3159 8.67522 77.506 7.37464 78.8441 6.22414ZM82.5555 6.3746C82.4295 6.59726 82.3035 6.81992 82.1834 7.04257C81.3093 8.19835 80.3457 9.41439 79.3888 10.45C78.5158 11.3834 77.5838 12.1965 76.6282 12.9857C77.5489 12.0402 78.4341 11.0588 79.3074 10.0654C80.3782 8.83113 81.5024 7.62686 82.5555 6.3746ZM98.1663 16.03C96.8933 16.02 95.608 16.1002 94.3282 16.2585C92.3936 16.4961 90.5063 16.8117 88.5712 17.1755C87.7435 17.3331 86.8921 17.4848 86.047 17.5462C87.2682 17.2136 88.4662 16.7307 89.7645 16.4341C92.4863 15.7864 95.3663 15.6376 98.1663 16.03ZM99.6914 19.2803C96.7977 19.802 93.7397 19.8489 90.9344 19.3122C89.5912 19.0558 88.2903 18.661 86.9775 18.2663C88.214 18.4567 89.4506 18.6111 90.6873 18.7594C93.7135 19.1274 96.6923 19.4594 99.6914 19.2803ZM101.877 18.7778C101.865 18.7778 101.859 18.7899 101.847 18.7899C98.1145 19.367 94.4579 18.9579 90.7182 18.5069C89.5291 18.3644 88.352 18.21 87.1631 18.0315C87.294 18.0193 87.4309 18.001 87.556 17.9828C88.6678 18.1073 89.7913 18.2859 90.8973 18.3923C93.6028 18.6466 96.3032 18.7325 99.0275 18.7943C100.057 18.8168 100.973 18.8394 101.877 18.7778ZM100.371 16.4474C97.9442 16.4392 95.516 16.6655 93.1466 17.03C91.8607 17.2244 90.4211 17.2147 89.135 17.4392C88.8195 17.4998 88.5158 17.5544 88.2181 17.615C88.0098 17.6153 87.8016 17.6156 87.5935 17.6039C87.9388 17.5433 88.2663 17.4886 88.6116 17.4159C90.5468 17.0581 92.4341 16.7365 94.3567 16.505C96.2496 16.2675 98.1357 16.2104 100.039 16.3697C100.116 16.3876 100.181 16.3996 100.247 16.4175C100.288 16.4295 100.336 16.4414 100.371 16.4474ZM106.501 17.2493C102.993 18.0365 99.3105 18.0784 95.7594 18.0059C93.8083 17.9729 91.8869 17.9459 89.9422 17.8347C90.0552 17.8345 90.1623 17.8223 90.2754 17.8221C92.0661 17.7892 93.8273 17.7324 95.6185 17.6213C98.8616 17.4117 103.205 17.3207 106.501 17.2493ZM104.241 17.0425C101.373 17.1132 98.1487 17.2084 95.5959 17.3628C93.8166 17.4738 92.0555 17.5307 90.2707 17.5636C90.1933 17.5637 90.122 17.5639 90.0446 17.564C91.0803 17.4541 92.1869 17.4283 93.187 17.2704C96.0267 16.845 98.9785 16.6059 101.881 16.7396C102.654 16.8706 103.456 16.9656 104.241 17.0425ZM105.076 17.7807C104.427 17.9922 103.778 18.1856 103.128 18.3971C101.765 18.5856 100.528 18.5635 99.0347 18.5298C96.3699 18.4679 93.717 18.3939 91.071 18.1456C92.6293 18.2092 94.1818 18.2368 95.7522 18.2644C98.8215 18.3197 102.01 18.2966 105.076 17.7807Z" fill="url(#paint0_linear_109_167)"/>
</g>
<defs>
<linearGradient id="paint0_linear_109_167" x1="3.28429" y1="35.8902" x2="94.2375" y2="21.7979" gradientUnits="userSpaceOnUse">
<stop stop-color="#E0B143"/>
<stop offset="1" stop-color="#823D99"/>
</linearGradient>
<clipPath id="clip0_109_167">
<rect width="110" height="50" fill="white"/>
</clipPath>
</defs>
</svg>
