<svg width="110" height="50" viewBox="0 0 110 50" fill="none" xmlns="http://www.w3.org/2000/svg">
<g clip-path="url(#clip0_109_166)">
<path fill-rule="evenodd" clip-rule="evenodd" d="M27.2258 17.7498C27.1904 17.7979 27.131 17.8278 27.0656 17.8338C26.8457 17.8635 26.6256 17.8691 26.4115 17.8808C23.969 18.4061 21.6179 19.3583 19.1692 19.8234C15.2405 20.5688 10.8307 20.2131 7.02939 18.9925C5.75437 18.5877 4.4736 18.2249 3.22783 17.7179C3.02519 17.6394 2.66184 17.5426 2.35194 17.4279C2.09567 17.3313 1.87494 17.2047 1.74938 17.0722C1.67163 16.9879 1.68316 16.9098 1.68287 16.8497C1.69439 16.7715 1.72982 16.7175 1.80689 16.6635C1.83655 16.6455 1.88406 16.6275 1.94949 16.6276C1.99114 16.6277 2.05664 16.6398 2.09233 16.6399C2.33031 16.6463 2.56833 16.6587 2.80635 16.6711C3.38949 16.702 3.97838 16.6909 4.5552 16.6438C6.23799 16.4901 7.98024 16.3305 9.62615 15.9303C13.1141 15.088 16.8561 15.124 20.364 15.9413C21.9779 16.3166 23.4328 16.9983 24.9986 17.2653L25.0105 17.2653C26.8356 17.0097 28.6849 16.8382 30.5407 16.7931C32.2836 16.7598 34.027 16.8347 35.7593 17.0899C36.3903 17.1751 37.0096 17.2963 37.6289 17.4296C36.7401 16.9171 35.8808 16.3746 35.0571 15.8142C33.9887 15.079 32.8252 14.3677 31.8927 13.4403C30.3744 11.9287 29.2773 10.1834 28.0732 8.43787C27.5639 7.69753 27.1792 6.8672 26.6996 6.10286C26.172 5.26629 25.5614 4.46567 25.0338 3.61708C24.71 3.09949 24.3626 2.5939 24.0269 2.08231C23.9191 1.92581 23.8292 1.78137 23.7095 1.63688C23.6616 1.57668 23.5482 1.50435 23.5003 1.44415C23.4525 1.38395 23.4225 1.32979 23.4163 1.2877C23.398 1.19748 23.4156 1.13137 23.4629 1.07733C23.4984 1.02929 23.5575 0.96926 23.6705 0.963426C23.8489 0.945671 24.0694 1.02418 24.302 1.1448C24.5585 1.2895 24.8391 1.50038 25.0062 1.60887C26.0442 2.20575 27.1236 2.74256 28.138 3.3875C30.8591 5.13542 33.3912 7.1536 35.0707 10.0062C36.0784 11.7153 36.676 13.5019 37.5521 15.0666C38.3382 16.4747 39.3554 17.6909 41.1199 18.4512C43.617 19.3811 45.8598 20.6352 48.1452 22.0638C52.2385 24.6316 56.4537 27.7888 62.5709 30.6183C64.7174 31.6137 66.9044 32.4048 69.1025 33.0096C69.0369 32.9674 68.9712 32.9312 68.8997 32.895C66.9308 31.7074 64.3276 29.7493 63.0096 27.8292C61.4638 25.554 60.2868 22.0469 59.0075 19.5317C58.491 18.5088 57.8383 17.6239 57.126 16.7329C56.9704 16.5403 56.7075 16.2873 56.4861 16.0284C56.3126 15.8237 56.1807 15.6131 56.1203 15.4206C56.078 15.2943 56.1193 15.2162 56.1488 15.1681C56.196 15.09 56.2731 15.0421 56.3981 15.0543C56.4338 15.0543 56.4934 15.0725 56.5531 15.1147C56.6187 15.1629 56.7323 15.2713 56.7979 15.3074C56.9889 15.434 57.168 15.5606 57.3648 15.6751C57.9257 16.0307 58.5398 16.3143 59.1184 16.6339C59.3451 16.7605 59.5778 16.8931 59.7985 17.0197C59.8459 16.9897 59.9114 16.9898 59.9532 17.038C60.0309 17.1163 60.1086 17.1826 60.1804 17.2608C61.0277 17.8033 61.8217 18.3817 62.5982 19.0263C62.6457 18.9963 62.7111 18.9964 62.747 19.0446C63.0996 19.3758 63.4463 19.7131 63.7633 20.0683C63.8888 20.1827 64.0202 20.3092 64.1458 20.4357C66.5962 22.7784 67.9421 25.5583 69.4141 28.5608C69.9248 29.6018 70.3764 30.7208 70.9879 31.7018C71.5814 32.6467 72.317 33.4535 73.4139 33.9182C73.5093 33.9605 73.6165 33.9967 73.7119 34.0269C79.0402 34.8651 84.4828 34.7294 89.9516 33.8783C85.5062 33.5405 80.6858 30.7071 77.49 27.9844C77.4242 27.9242 77.3585 27.8699 77.2868 27.8097C76.0085 26.7194 74.9436 25.4852 73.9733 24.1068C73.9074 24.0165 73.7699 23.884 73.6681 23.7395C73.5723 23.6131 73.4884 23.4867 73.4581 23.3725C73.4278 23.2642 73.4274 23.168 73.4686 23.0839C73.5039 22.9998 73.5748 22.9097 73.6936 22.8558C75.2489 22.1728 77.5589 22.5552 79.919 23.4608C83.4115 24.7951 87.0285 27.2599 88.5119 28.9277C89.1997 29.6984 89.7107 30.7995 90.334 31.7444C90.8433 32.5148 91.4236 33.1831 92.2814 33.431C97.0648 32.2902 104.463 29.3678 107.525 26.4807C107.679 26.3366 107.917 26.349 108.06 26.4995C108.174 26.626 108.192 26.8004 108.122 26.9446C108.14 26.9626 108.14 26.9927 108.152 27.0108C108.181 26.9807 108.211 26.9627 108.235 26.9327C108.294 26.8847 108.365 26.8969 108.413 26.945C108.461 27.0052 108.45 27.0774 108.402 27.1314C108.041 27.4555 107.656 27.7375 107.258 28.0134C107.217 28.0434 107.163 28.0433 107.128 28.0132C106.861 28.2172 106.588 28.4152 106.309 28.5891C106.25 28.6251 106.167 28.6069 106.137 28.5468C106.137 28.5407 106.125 28.5407 106.125 28.5287C104.452 29.6263 102.328 30.6872 100.125 31.6096C100.096 31.6697 100.042 31.7177 99.9711 31.7356C99.6266 31.8433 99.294 31.945 98.9733 32.0708C98.8902 32.1067 98.7952 32.1366 98.7061 32.1786C98.2312 32.3702 97.7622 32.5799 97.3113 32.8197C97.0871 33.2222 96.9645 33.6849 96.8715 34.1477C96.7669 34.6646 96.6862 35.1876 96.5279 35.6804C95.2617 39.5624 93.7354 42.5542 90.5417 45.1886C90.1743 45.4887 87.9036 47.0844 86.8287 47.4555C86.5911 47.5453 86.389 47.569 86.2699 47.5448C86.1568 47.5266 86.0791 47.4663 86.0193 47.3881C85.9235 47.2616 85.875 47.0812 85.8739 46.8407C85.8725 46.5701 85.9482 46.2155 86.0593 45.8129C86.4924 44.3525 87.5652 42.2919 87.8306 41.8354C89.7482 38.5556 92.2674 35.4392 95.4279 33.3218L95.4101 33.3337C94.7151 33.5551 94.0142 33.7644 93.3012 33.9497C92.719 34.1051 92.1307 34.2485 91.5424 34.3678C91.3522 34.4096 91.162 34.4453 90.9599 34.4811C90.8648 34.499 90.7697 34.5109 90.6627 34.5287C90.5498 34.5466 90.4368 34.5705 90.318 34.5883C89.9554 34.6479 89.5927 34.7014 89.242 34.7489C88.4156 34.8619 87.5773 34.9688 86.739 35.0516C86.3287 35.087 85.9184 35.1285 85.52 35.1639C85.4071 35.1938 85.2942 35.2237 85.1694 35.2476C85.1695 35.2656 85.1576 35.2776 85.1518 35.2956C82.1558 41.9166 76.6429 47.2049 69.3733 48.4259C68.9572 48.4914 66.2471 49.0283 64.9628 49.1585C64.5822 49.194 64.3145 49.1875 64.2072 49.1453C64.0761 49.097 64.0162 49.0127 63.9979 48.9165C63.9797 48.8383 63.9793 48.7541 64.0323 48.658C64.0677 48.5919 64.1387 48.5018 64.2215 48.4178C64.3044 48.3337 64.4111 48.2437 64.4583 48.1777C64.7893 47.7273 65.1382 47.3009 65.4155 46.8204C66.2826 45.3006 67.175 44.0694 68.4422 42.869C73.085 38.4872 82.9686 35.3102 82.9686 35.3102C77.2408 35.5116 71.58 34.8172 66.0978 32.9146C66.0859 32.9146 66.0859 32.9146 66.08 32.9146C64.3786 32.9059 62.722 33.5526 61.1378 34.4219C59.524 35.3032 57.9766 36.401 56.553 37.2646C54.0499 38.7818 51.2943 39.7514 48.3809 40.0655C46.7636 40.2373 45.1632 40.1927 43.5384 40.0398C43.0503 39.9909 42.5741 39.93 42.092 39.8752C41.8896 39.8568 41.6932 39.8264 41.4908 39.796C41.4789 39.796 41.3362 39.8078 41.2826 39.8077C41.2052 39.7956 41.1575 39.7775 41.1217 39.7474C41.062 39.7052 41.0261 39.651 41.0139 39.5909C40.9957 39.5307 40.9954 39.4586 41.0425 39.3685C41.1075 39.2603 41.2438 39.1583 41.4218 39.0684C41.7068 38.9426 42.1347 38.8591 42.3127 38.7692C43.1378 38.3857 43.992 37.894 44.745 37.3661C46.1322 36.3763 47.3173 35.3981 48.9205 34.7754C52.6079 33.3562 56.3566 33.5365 60.2217 33.1939C61.744 33.0641 63.2055 32.6695 64.7092 32.3893C63.851 32.0633 63.0045 31.6952 62.1519 31.3091C57.7279 29.2578 54.2906 27.0398 51.1754 24.9906C51.1457 24.9906 51.11 24.9905 51.0802 24.9785C49.0132 24.416 47.0516 24.7376 45.1392 25.3899C43.1912 26.0542 41.3042 27.0493 39.4281 27.816C36.7801 28.9 33.3603 29.057 30.5968 28.3912C29.757 28.1855 28.1191 27.7921 27.3672 27.3099C27.3017 27.2917 27.2422 27.2796 27.1766 27.2615C27.1111 27.2433 27.0691 27.1771 27.0807 27.105C27.0982 27.0389 27.1635 26.9969 27.2349 27.009C27.2465 26.9489 27.282 26.9009 27.3412 26.8529C27.3709 26.8349 27.4183 26.8049 27.4956 26.793C27.561 26.7811 27.6979 26.7933 27.7632 26.7754C27.9653 26.7336 28.1553 26.6678 28.3455 26.62C28.9158 26.4646 29.4383 26.2489 29.9785 26.0153C31.6111 25.3265 33.0457 24.2765 34.8047 23.8945C38.0197 23.2082 41.0755 24.0367 44.2772 24.2763C46.1458 24.4115 47.9763 24.0416 49.8386 24.1047C49.1045 23.6225 48.3765 23.1464 47.6605 22.7064C41.5682 18.8848 35.7498 16.3504 24.2889 18.13L27.2258 17.7498ZM96.3154 33.5576L96.3214 33.5697C96.3332 33.5517 96.3332 33.5396 96.339 33.5216L96.3154 33.5576ZM89.4003 45.3552C89.7976 45.0792 90.1117 44.8452 90.2362 44.7613C93.347 42.1929 94.826 39.2671 96.063 35.4933C96.1099 35.349 96.1448 35.1928 96.1858 35.0425C96.0917 35.2708 95.9857 35.5052 95.8857 35.7275C95.5385 36.5145 95.2092 37.3077 94.7905 38.0646C93.5994 40.2512 92.2421 42.5218 90.5376 44.3349C90.1884 44.7071 89.7795 45.0251 89.4003 45.3552ZM87.8567 45.9901C88.4905 45.4199 89.0763 44.7895 89.6265 44.141C90.9161 42.6399 92.0028 41.0123 93.0954 39.3606C94.1406 37.775 95.3281 36.0693 96.0571 34.2607C95.7918 34.7593 95.455 35.2398 95.1777 35.7203C94.7058 36.5373 94.2636 37.3663 93.732 38.1531C93.0409 39.1741 92.2365 40.1348 91.4916 41.1077C90.6049 42.2727 89.6765 43.4196 88.8077 44.5967C88.4946 45.0531 88.2055 45.5517 87.8567 45.9901ZM95.6681 33.7851C92.6144 35.8606 90.1781 38.893 88.2899 42.0826C88.0362 42.5151 86.987 44.5156 86.5655 45.9399C86.4601 46.2765 86.3961 46.583 86.3972 46.8175C86.3973 46.8355 86.3974 46.8535 86.3975 46.8776C86.4735 46.6011 86.615 46.3368 86.7089 46.0604C86.8145 45.7539 86.8664 45.4173 86.9898 45.1049C87.3367 44.2577 87.916 43.489 88.3881 42.7081C88.7541 42.1134 89.0782 41.4887 89.4741 40.9181C90.1476 39.9572 90.9346 39.0806 91.6917 38.1859C92.5316 37.1952 93.3596 36.1864 94.2353 35.2138C94.7029 34.7215 95.1945 34.2653 95.6681 33.7851ZM86.6887 46.8119C86.748 46.7639 86.8012 46.7039 86.8486 46.6559C87.1318 46.1813 87.3554 45.6706 87.6387 45.2021C87.922 44.7275 88.2649 44.2952 88.5661 43.8327C88.8968 43.3342 89.1917 42.8056 89.5284 42.3131C90.2847 41.238 91.1542 40.2233 91.9523 39.1784C93.1463 37.599 94.3045 35.9835 95.4389 34.3619C95.0954 34.6981 94.7461 35.0342 94.4266 35.3885C93.5567 36.3491 92.7347 37.3579 91.8888 38.3486C91.1435 39.2312 90.3565 40.0958 89.6949 41.0627C89.299 41.6333 88.9749 42.2581 88.6208 42.8407C88.1485 43.5976 87.5811 44.3602 87.246 45.1955C87.1226 45.4959 87.0647 45.8205 86.965 46.1269C86.8829 46.3733 86.7709 46.5896 86.6887 46.8119ZM87.4939 46.0135C87.914 45.5392 88.2384 44.9565 88.6107 44.4461C89.4794 43.263 90.4079 42.1161 91.2946 40.9571C92.0454 39.9842 92.8439 39.0355 93.5291 38.0145C94.0488 37.2337 94.491 36.4167 94.957 35.5997C95.0986 35.3474 95.258 35.1072 95.4115 34.8609C94.354 36.3804 93.2667 37.8818 92.1554 39.3531C91.3693 40.404 90.5115 41.4007 89.7553 42.4878C89.4126 42.9803 89.1236 43.4969 88.7929 44.0014C88.4917 44.4519 88.1488 44.8842 87.8774 45.3588C87.7356 45.563 87.6178 45.7913 87.4939 46.0135ZM88.2552 45.9787C88.5515 45.7447 88.8418 45.5046 89.1203 45.2585C89.5409 44.8924 89.9854 44.5564 90.3642 44.1542C92.0509 42.3531 93.4024 40.1066 94.5817 37.938C94.8646 37.4093 95.1119 36.8686 95.3532 36.3279C94.722 37.4332 94.0014 38.5022 93.334 39.5113C92.2355 41.163 91.131 42.8026 89.8414 44.3097C89.3326 44.8921 88.8119 45.4565 88.2552 45.9787ZM74.6079 23.717C75.6706 24.5063 76.9288 25.1276 77.9794 25.8688C81.9549 28.6648 86.1789 31.1787 90.6909 32.9776C87.3487 30.7477 83.7581 28.7939 80.3157 26.7503C78.4185 25.6229 76.6991 24.3576 74.6079 23.717ZM77.3192 27.1123C77.4148 27.1966 77.5223 27.293 77.6239 27.3833C77.6896 27.4436 77.7553 27.4978 77.827 27.558C81.0587 30.3168 86.0043 33.2167 90.4786 33.356C88.912 32.9387 87.4393 32.2509 85.9195 31.6653C83.0109 30.5123 79.8928 29.1185 77.3192 27.1123ZM74.0585 23.2712C74.0764 23.2893 74.0883 23.3013 74.1063 23.3194C76.4767 23.8943 78.3514 25.2922 80.4395 26.534C83.524 28.3667 86.721 30.1154 89.7466 32.0682C86.3064 29.2609 82.6283 26.4413 78.5453 24.7814C77.0789 24.1658 75.636 23.4901 74.0585 23.2712ZM74.5915 24.0236C77.3576 27.6775 81.895 29.8071 86.0134 31.4069C87.2531 31.8899 88.4634 32.4389 89.7206 32.8558C85.5121 31.0754 81.5625 28.7003 77.8257 26.0729C76.817 25.3679 75.6243 24.7708 74.5915 24.0236ZM76.2821 23.0102C77.1873 23.216 78.1052 23.5902 78.874 23.862C81.2396 24.6654 85.4999 27.3176 87.3705 29.1063C88.0519 29.7627 88.6976 30.4251 89.367 31.0755C88.983 30.4075 88.611 29.7456 88.1505 29.2338C86.6971 27.6141 83.1518 25.2096 79.7487 23.9055C78.5388 23.4466 77.3474 23.1141 76.2821 23.0102ZM74.7776 23.1401C76.1116 23.4308 77.3696 24.01 78.6512 24.5351C82.5077 26.1104 86.0122 28.6953 89.2791 31.352C88.5798 30.6775 87.9102 29.979 87.2049 29.3044C85.3582 27.5399 81.1515 24.9118 78.8038 24.1204C78.1245 23.8849 77.3556 23.571 76.5633 23.3533C75.9616 23.178 75.3484 23.0808 74.7776 23.1401ZM84.475 35.5892L84.4869 35.5892L84.4987 35.5591L84.475 35.5892ZM70.5652 47.6342C71.1357 47.5028 71.6881 47.3353 72.2404 47.1438C75.3559 45.5374 78.5349 42.3197 80.7255 40.1527C82.099 38.784 83.4621 37.722 84.2387 35.9195C81.9829 39.3731 78.46 41.6041 75.3194 44.1485C73.7552 45.4447 72.304 46.7591 70.5652 47.6342ZM67.0943 48.2961C68.1285 48.1113 69.1092 47.9265 69.341 47.8848L69.3529 47.8848C71.5976 47.0767 73.2913 45.48 75.1578 43.9558C78.0199 41.6215 81.2104 39.5643 83.4507 36.5916C82.2666 37.7742 81.0648 38.9688 79.7729 40.0069C77.3848 41.9271 74.6974 43.456 72.1236 45.1294C70.2675 46.335 68.8929 47.4872 67.0943 48.2961ZM65.8987 47.0917C68.286 45.0031 71.2301 43.643 73.9768 42.066C77.299 40.1653 80.37 37.9937 83.4345 35.7078C83.3217 35.7377 83.2088 35.7735 83.0841 35.8154C82.7999 36.1036 82.4502 36.3736 82.0588 36.6255C81.0506 37.2672 79.8277 37.7944 79.0864 38.2742C76.6847 39.8397 74.3065 41.3571 71.7668 42.6938C69.9629 43.6349 68.1937 44.3657 66.7368 45.7282C66.4533 46.1486 66.1818 46.5931 65.9163 47.0556C65.9105 47.0677 65.9105 47.0797 65.8987 47.0917ZM65.1425 48.1848C70.9621 44.815 76.9318 41.74 81.9665 37.2146C82.4048 36.8184 82.8791 36.4765 83.3294 36.1104C80.3419 38.3303 77.336 40.4359 74.0969 42.3007C71.0298 44.0575 67.7353 45.5434 65.2253 48.0767C65.2016 48.1067 65.1721 48.1487 65.1425 48.1848ZM73.7783 46.545C77.613 44.8255 80.7634 41.8483 83.0362 38.2264C82.3913 38.9589 81.6509 39.613 80.9049 40.3514C79.034 42.2003 76.4469 44.8116 73.7783 46.545ZM64.9007 48.6293C65.0732 48.6115 65.2694 48.5938 65.5013 48.5641C65.6142 48.5463 65.7272 48.5344 65.8461 48.5166C68.2516 47.7387 69.7679 46.3763 71.9977 44.9248C74.5596 43.2634 77.2352 41.7345 79.6233 39.8203C80.7789 38.8902 81.8624 37.8277 82.934 36.7712C82.6673 36.9812 82.4007 37.1912 82.146 37.4253C76.821 42.1968 70.4472 45.3613 64.3135 48.9771L64.9007 48.6293ZM67.3573 44.8754C68.6673 43.8854 70.1514 43.2444 71.6705 42.4532C74.2043 41.1284 76.5765 39.611 78.9663 38.0516C79.7076 37.5718 80.9306 37.0446 81.9388 36.4028C82.1167 36.2889 82.2887 36.1749 82.4487 36.0489C80.7272 36.8158 79.1078 37.7752 77.4343 38.6324C74.0992 40.3106 70.7995 41.9468 67.8659 44.2509C67.6884 44.455 67.5169 44.6652 67.3573 44.8754ZM68.9906 43.0863C71.5992 41.2506 74.442 39.8482 77.2964 38.3916C78.4951 37.7803 79.6697 37.1147 80.8744 36.4974C76.5447 37.9636 72.2834 40.0371 68.9906 43.0863ZM58.5379 17.144C59.8905 18.8236 60.6798 20.9052 61.7892 22.7347C63.8402 26.135 66.4368 29.1934 69.5244 31.6875C70.1156 32.1574 70.6836 32.7475 71.2928 33.2415C71.3286 33.2596 71.3585 33.2897 71.4002 33.3078C71.3046 33.2235 71.2209 33.1332 71.1253 33.0488C70.4262 32.4044 69.7685 31.73 69.099 31.0495C66.4566 28.3698 64.1999 25.4742 62.1382 22.3144C61.0235 20.6111 60.0321 18.5773 58.5379 17.144ZM62.5609 26.0849C62.8311 26.5964 63.119 27.0778 63.4066 27.5112C64.6827 29.371 67.2143 31.275 69.1295 32.4324C69.6068 32.7218 70.1019 33.0111 70.6267 33.2825C69.7854 32.7521 68.9912 32.1316 68.2091 31.5531C66.1791 30.0348 64.1417 28.1978 62.5609 26.0849ZM62.2251 19.3624C62.8352 20.0488 63.4216 20.7592 63.9665 21.4936C65.3376 23.3175 66.4423 25.4056 67.6236 27.3555C68.3612 28.5712 69.1224 29.7448 69.9727 30.8825C69.6365 30.2567 69.3003 29.6309 68.9286 29.023C68.0173 27.5605 66.9932 26.158 66.1294 24.6656C65.5415 23.6545 65.1376 22.5476 64.5437 21.5246C64.3045 21.2656 64.0653 21.0127 63.7964 20.7598C63.2765 20.272 62.7506 19.7961 62.2251 19.3624ZM59.9982 17.7295C60.2552 17.9644 60.5062 18.2053 60.7156 18.4521C61.3676 19.1927 61.9249 20.0413 62.5177 20.8359C64.3018 23.1776 65.9198 25.6212 67.5438 28.0769C68.185 29.0399 68.8676 29.9488 69.5917 30.8278C68.8071 29.7443 68.0939 28.6489 67.3983 27.4994C66.217 25.5556 65.1123 23.4795 63.7531 21.6556C62.9029 20.5179 61.9636 19.4281 60.9652 18.3984C60.6607 18.1695 60.3324 17.9465 59.9982 17.7295ZM58.9905 17.2409C60.3359 18.668 61.291 20.5694 62.3338 22.1704C64.3835 25.3122 66.6283 28.1957 69.2706 30.8574C69.3483 30.9356 69.426 31.0139 69.4918 31.0922C68.7259 30.1771 68.0075 29.232 67.3363 28.2208C65.7064 25.7712 64.0944 23.3336 62.3222 20.9919C61.7294 20.2094 61.184 19.3608 60.532 18.6322C60.0954 18.1385 59.5636 17.6627 58.9905 17.2409ZM60.9919 22.7034C61.2446 23.281 61.4913 23.8706 61.7499 24.4362C63.399 27.1624 65.8849 29.4812 68.3507 31.3249C68.5239 31.4514 68.6851 31.5779 68.8583 31.7105C68.7627 31.6322 68.6791 31.5659 68.5895 31.4876C65.6332 29.09 63.0067 26.0014 60.9919 22.7034ZM65.2976 22.4216C65.646 23.1316 65.953 23.8596 66.3429 24.5396C67.0509 25.7853 67.8894 26.9591 68.6626 28.1568C67.6533 26.105 66.6743 24.1674 65.2976 22.4216ZM57.6426 16.5353C58.1275 17.1554 58.5886 17.7814 58.9963 18.4434L59.0022 18.4314C59.0675 18.4014 59.1449 18.4196 59.175 18.4918C59.7696 19.6652 60.2158 20.8924 60.8875 22.0298C62.4052 24.6236 64.3208 27.1038 66.4846 29.2416C64.6074 27.3147 62.961 25.1596 61.5697 22.8486C60.3403 20.8144 59.5021 18.4623 57.8398 16.716C57.7741 16.6618 57.7084 16.6016 57.6426 16.5353ZM42.6064 39.2326C43.0642 39.1732 43.5219 39.1018 43.9555 38.9642C44.5733 38.7728 45.1249 38.4249 45.7488 38.2756C49.421 37.3976 53.1167 36.4655 56.6981 35.2807C57.7791 34.9277 58.836 34.5024 59.8928 34.0712C60.0353 34.0113 60.1896 33.9454 60.3321 33.8795C59.6075 34.1309 58.8406 34.2319 58.1098 34.4171C56.559 34.7995 55.0321 35.2119 53.4813 35.5943C50.9263 36.2275 48.3297 36.8608 45.8474 37.7467C44.8853 38.0939 43.9598 38.6095 43.0279 39.0349C42.8735 39.1068 42.737 39.1667 42.6064 39.2326ZM45.187 37.7336C45.377 37.6557 45.555 37.5779 45.7451 37.512C48.2334 36.6201 50.8419 35.9869 53.4087 35.3476C54.9595 34.9653 56.4864 34.5528 58.0372 34.1705C58.4056 34.0749 58.7979 34.0094 59.1782 33.9198C58.4172 34.0268 57.6562 34.1098 56.9073 34.2529C55.0114 34.6166 53.1519 35.1428 51.262 35.5246C49.693 35.8408 47.8201 36.0423 46.3844 36.8577C45.9872 37.1456 45.596 37.4336 45.187 37.7336ZM48.8718 39.465C51.5352 39.1145 54.053 38.1925 56.3604 36.8013C57.2324 36.2736 58.1337 35.6678 59.0767 35.074C58.5424 35.3137 58.0142 35.5533 57.4919 35.805C55.842 36.6201 54.1861 37.4111 52.4882 38.136C51.2949 38.6451 50.0955 39.1182 48.8718 39.465ZM43.0357 39.4317L43.1905 39.45C43.601 39.4627 44.0174 39.4513 44.4277 39.4159C45.3791 39.3212 46.2461 39.0159 47.1552 38.7829C48.3256 38.4781 49.5261 38.2275 50.6843 37.8565C51.6525 37.5394 52.5785 37.12 53.5466 36.7908C55.1324 36.2643 56.694 35.6655 58.2198 35.0185C57.7447 35.1982 57.2696 35.3658 56.7826 35.5273C53.1893 36.7181 49.4816 37.6442 45.8095 38.5342C45.1916 38.6896 44.64 39.0314 44.0341 39.2169C43.7015 39.3246 43.3568 39.3901 43.0179 39.4377L43.0358 39.4377L43.0357 39.4317ZM47.5347 36.0779C48.7345 35.683 50.0424 35.5046 51.2072 35.272C53.0972 34.8902 54.9626 34.364 56.8526 34.0003C57.0903 33.9526 57.3281 33.9169 57.5777 33.8752C54.7289 34.027 51.9456 34.1729 49.1904 35.2387C48.5848 35.4723 48.0448 35.76 47.5347 36.0779ZM44.9997 39.6032C45.678 39.6343 46.3503 39.6414 47.0284 39.6244C48.883 39.3207 50.6406 38.6561 52.3859 37.9013C53.781 37.2963 55.1402 36.6611 56.5053 36.0019C55.5553 36.3731 54.5932 36.7203 53.6192 37.0495C52.6571 37.3787 51.7311 37.7981 50.757 38.1152C49.5987 38.4861 48.3983 38.7488 47.2219 39.0415C46.4732 39.2267 45.7486 39.4661 44.9997 39.6032ZM33.1005 28.2388C35.2071 28.3865 37.4484 28.0894 39.3008 27.3348C40.7376 26.7478 42.1797 26.0286 43.6521 25.4237C43.4263 25.4774 43.2066 25.5492 42.9987 25.6271C40.0057 26.7106 36.8292 27.9862 33.6239 28.2096C33.4514 28.2154 33.273 28.2271 33.1005 28.2388ZM32.5926 25.31C33.4486 25.1791 34.335 25.1865 35.2213 25.1698C36.3991 25.1537 37.6004 25.0594 38.7785 25.1153C39.433 25.1464 40.1114 25.1956 40.7778 25.2147C41.5566 25.1077 42.3473 25.0067 43.1261 24.8937C43.1142 24.8937 43.0963 24.8937 43.0904 24.8937C41.7697 24.8976 40.4719 24.6971 39.1568 24.6109C37.2406 24.4756 35.2418 24.4905 33.3701 24.9384C33.103 25.0583 32.8478 25.1841 32.5926 25.31ZM34.9975 24.3939C36.3887 24.2337 37.7928 24.254 39.1674 24.3524C40.3755 24.4385 41.578 24.6147 42.7857 24.6347C40.1846 24.3299 37.642 23.8329 34.9975 24.3939ZM29.9687 27.6807C30.2248 27.7473 30.4571 27.8078 30.6656 27.8562C31.6358 27.972 32.6057 28.0216 33.6167 27.9571C36.7566 27.7336 39.856 26.5059 42.7896 25.4283C42.635 25.4461 42.4863 25.4579 42.3257 25.4637C41.6958 25.607 41.072 25.7683 40.4422 25.9236C38.6062 26.3837 36.7948 27.0242 34.9166 27.3519C33.2879 27.6199 31.617 27.7796 29.9687 27.6807ZM28.5568 27.2576L28.5866 27.2697C30.6643 27.5977 32.8052 27.4507 34.8678 27.0993C36.7342 26.7836 38.5396 26.1431 40.3756 25.683C40.6251 25.6233 40.8687 25.5575 41.1182 25.4918C41.0112 25.4916 40.91 25.4915 40.8029 25.4793C38.3357 25.8121 35.8744 26.1268 33.4192 26.4897C32.6583 26.6028 31.8854 26.6917 31.1246 26.8228C30.2806 26.9838 29.4131 27.1868 28.5389 27.2516L28.5568 27.2576ZM29.1263 26.9279C29.7802 26.8327 30.4279 26.6894 31.0758 26.5762C31.8366 26.4331 32.6095 26.3441 33.3763 26.2311C35.3618 25.9336 37.3594 25.6783 39.351 25.4109C39.1487 25.3985 38.9583 25.3922 38.7619 25.3799C37.5897 25.3179 36.3944 25.4122 35.2107 25.4344C34.0091 25.4505 32.7894 25.4185 31.6729 25.7955C31.1982 26.0473 30.7234 26.287 30.2307 26.4967C29.8685 26.6404 29.5063 26.7962 29.1263 26.9279ZM37.941 16.7747C37.959 16.7928 37.9709 16.8048 37.9889 16.8229C38.0844 16.9012 38.1919 16.9795 38.2874 17.0518C38.2994 17.0639 38.3054 17.0699 38.3173 17.082C38.3352 17.094 38.3531 17.1 38.365 17.1121C38.2395 16.9796 38.1258 16.8412 38.0121 16.6967C38.0002 16.7147 37.9944 16.7327 37.9826 16.7568C37.9648 16.7627 37.9589 16.7748 37.941 16.7747ZM29.3269 9.35976C30.2077 10.6598 31.1121 11.9239 32.2359 13.05C33.1445 13.9473 34.2782 14.6525 35.3227 15.3697C35.9911 15.8217 36.6893 16.2677 37.3933 16.6897L37.3575 16.6596C36.8439 16.2439 36.3421 15.8102 35.8462 15.3765C35.5237 15.1054 35.1951 14.8284 34.8726 14.5573C33.3256 13.2622 31.803 12.1054 30.4276 10.6241C30.0628 10.2207 29.6919 9.79924 29.3269 9.35976ZM26.8044 3.17496C29.1561 4.79603 31.1709 6.86149 32.8656 9.18498C33.9077 10.6296 34.9382 12.1284 35.9329 13.609C36.2685 14.1206 36.616 14.6382 36.9991 15.1198C36.855 14.861 36.7228 14.5903 36.5966 14.3195C36.4407 14.0667 36.2908 13.82 36.1349 13.5672C34.9712 11.5753 33.6117 9.69121 32.1753 7.89722C31.3973 6.934 30.6605 5.88065 29.7226 5.0735C29.1137 4.62761 28.481 4.20574 27.8484 3.78988C27.5024 3.5789 27.1564 3.37994 26.8044 3.17496ZM27.6537 4.12026C29.6438 5.99328 31.2432 8.28054 32.8662 10.5318C33.8425 11.8981 34.985 13.1926 36.1035 14.445C36.2769 14.6377 36.4385 14.8303 36.612 15.035C36.3066 14.6197 36.0189 14.1863 35.7313 13.753C34.7425 12.2663 33.7181 10.7736 32.676 9.32898C31.2328 7.37265 29.5585 5.59632 27.6537 4.12026ZM25.8276 2.93291C26.3958 3.55911 26.9106 4.21528 27.455 4.85947C28.873 6.53919 30.3087 8.17084 31.6674 9.89256C32.6071 11.0785 33.5707 12.2945 34.6171 13.3844C35.1731 13.9625 35.735 14.5226 36.3029 15.0886C36.1713 14.9321 36.0337 14.7816 35.9021 14.625C34.7835 13.3607 33.6351 12.0722 32.6468 10.6817C30.6343 7.8527 28.6275 4.96955 25.8276 2.93291ZM25.076 2.49883C25.43 3.12468 25.7781 3.76255 26.1974 4.35845C27.6168 6.32677 29.291 8.07905 30.8881 9.89734C32.4972 11.7277 34.1895 13.5461 36.0177 15.1724L36.0536 15.2025C35.5096 14.6605 34.9656 14.1125 34.4276 13.5645C33.3752 12.4626 32.4056 11.2405 31.46 10.0546C30.1012 8.32684 28.6656 6.70722 27.2476 5.0275C26.5475 4.17863 25.8591 3.2877 25.076 2.49883ZM31.1559 6.22414C31.5688 6.72383 31.958 7.24753 32.3649 7.74721C33.544 9.22213 34.6758 10.7571 35.6829 12.358C35.3642 11.654 35.0217 10.944 34.6078 10.2459C33.6841 8.67522 32.494 7.37464 31.1559 6.22414ZM27.4445 6.3746C27.5705 6.59726 27.6965 6.81992 27.8166 7.04257C28.6907 8.19835 29.6543 9.41439 30.6112 10.45C31.4842 11.3834 32.4162 12.1965 33.3718 12.9857C32.4511 12.0402 31.5659 11.0588 30.6926 10.0654C29.6218 8.83113 28.4976 7.62686 27.4445 6.3746ZM11.8337 16.03C13.1067 16.02 14.392 16.1002 15.6718 16.2585C17.6064 16.4961 19.4937 16.8117 21.4288 17.1755C22.2565 17.3331 23.1079 17.4848 23.953 17.5462C22.7318 17.2136 21.5338 16.7307 20.2355 16.4341C17.5137 15.7864 14.6337 15.6376 11.8337 16.03ZM10.3086 19.2803C13.2023 19.802 16.2603 19.8489 19.0656 19.3122C20.4088 19.0558 21.7097 18.661 23.0225 18.2663C21.786 18.4567 20.5494 18.6111 19.3127 18.7594C16.2865 19.1274 13.3077 19.4594 10.3086 19.2803ZM8.12295 18.7778C8.13484 18.7778 8.14085 18.7899 8.15275 18.7899C11.8855 19.367 15.5421 18.9579 19.2818 18.5069C20.4709 18.3644 21.648 18.21 22.8369 18.0315C22.706 18.0193 22.5691 18.001 22.444 17.9828C21.3322 18.1073 20.2087 18.2859 19.1027 18.3923C16.3972 18.6466 13.6968 18.7325 10.9725 18.7943C9.9435 18.8168 9.02747 18.8394 8.12295 18.7778ZM9.62865 16.4474C12.0558 16.4392 14.484 16.6655 16.8534 17.03C18.1393 17.2244 19.5789 17.2147 20.865 17.4392C21.1805 17.4998 21.4842 17.5544 21.7819 17.615C21.9902 17.6153 22.1984 17.6156 22.4065 17.6039C22.0612 17.5433 21.7337 17.4886 21.3884 17.4159C19.4532 17.0581 17.5659 16.7365 15.6433 16.505C13.7504 16.2675 11.8643 16.2104 9.96142 16.3697C9.88417 16.3876 9.81879 16.3996 9.75344 16.4175C9.71185 16.4295 9.66431 16.4414 9.62865 16.4474ZM3.49921 17.2493C7.00692 18.0365 10.6895 18.0784 14.2406 18.0059C16.1917 17.9729 18.1131 17.9459 20.0578 17.8347C19.9448 17.8345 19.8377 17.8223 19.7246 17.8221C17.9339 17.7892 16.1727 17.7324 14.3815 17.6213C11.1384 17.4117 6.79525 17.3207 3.49921 17.2493ZM5.7588 17.0425C8.62651 17.1132 11.8513 17.2084 14.4041 17.3628C16.1834 17.4738 17.9445 17.5307 19.7293 17.5636C19.8067 17.5637 19.878 17.5639 19.9554 17.564C18.9197 17.4541 17.8131 17.4283 16.813 17.2704C13.9733 16.845 11.0215 16.6059 8.11905 16.7396C7.34632 16.8706 6.54368 16.9656 5.7588 17.0425ZM4.92357 17.7807C5.57302 17.9922 6.22238 18.1856 6.87183 18.3971C8.23505 18.5856 9.47231 18.5635 10.9653 18.5298C13.6301 18.4679 16.283 18.3939 18.929 18.1456C17.3707 18.2092 15.8182 18.2368 14.2478 18.2644C11.1785 18.3197 7.98975 18.2966 4.92357 17.7807Z" fill="url(#paint0_linear_109_166)"/>
</g>
<defs>
<linearGradient id="paint0_linear_109_166" x1="106.716" y1="35.8902" x2="15.7625" y2="21.7979" gradientUnits="userSpaceOnUse">
<stop stop-color="#E0B143"/>
<stop offset="1" stop-color="#823D99"/>
</linearGradient>
<clipPath id="clip0_109_166">
<rect width="110" height="50" fill="white" transform="matrix(-1 0 0 1 110 0)"/>
</clipPath>
</defs>
</svg>
